<svg width="1091" height="1091" viewBox="0 0 1091 1091" fill="none" xmlns="http://www.w3.org/2000/svg">
<path d="M546.984 397.964H396.992C314.156 397.964 247 331.26 247 248.982C247 166.704 314.156 100 396.992 100H546.984V397.964Z" stroke="#009DFF" stroke-width="74" stroke-miterlimit="10" stroke-linecap="round" stroke-linejoin="round"/>
<path d="M546.984 695.836H396.992C314.156 695.836 247 629.131 247 546.854C247 464.576 314.156 397.872 396.992 397.872H546.984V695.836Z" stroke="#009DFF" stroke-width="74" stroke-miterlimit="10" stroke-linecap="round" stroke-linejoin="round"/>
<path d="M396.992 994C314.156 994 247 927.296 247 845.018C247 762.74 314.156 696.036 396.992 696.036H546.984V845.018C546.984 927.296 479.827 994 396.992 994Z" stroke="#009DFF" stroke-width="74" stroke-miterlimit="10" stroke-linecap="round" stroke-linejoin="round"/>
<path d="M692.479 397.964H542.488V100H692.479C775.315 100 842.471 166.704 842.471 248.982C842.471 331.26 775.315 397.964 692.479 397.964Z" stroke="#009DFF" stroke-width="74" stroke-miterlimit="10" stroke-linecap="round" stroke-linejoin="round"/>
<path d="M707.008 695.868C784.323 695.868 847 633.614 847 556.819C847 480.024 784.323 417.769 707.008 417.769C629.692 417.769 567.015 480.024 567.015 556.819C567.015 633.614 629.692 695.868 707.008 695.868Z" stroke="#009DFF" stroke-width="74" stroke-miterlimit="10" stroke-linecap="round" stroke-linejoin="round"/>
</svg>
