<svg width="859" height="293" viewBox="0 0 859 293" fill="none" xmlns="http://www.w3.org/2000/svg">
<g opacity="0.62">
<mask id="mask0_78_79" style="mask-type:alpha" maskUnits="userSpaceOnUse" x="0" y="0" width="859" height="293">
<rect width="859" height="293" fill="url(#paint0_linear_78_79)"/>
</mask>
<g mask="url(#mask0_78_79)">
<path d="M547.306 72.2893C574.192 72.2893 595.99 81.6246 611.07 98.1165C626.155 114.613 634.561 138.319 634.561 167.132V180.676C634.561 180.952 634.337 181.176 634.061 181.176H503.083C502.255 181.176 501.583 181.848 501.583 182.676V184.369C501.583 199.733 506.281 212.611 514.705 221.654C523.133 230.699 535.25 235.863 549.998 235.863C570.339 235.862 586.028 225.985 591.452 210.74L591.702 210.011C591.775 209.792 591.975 209.648 592.191 209.648H632.094C632.362 209.648 632.572 209.859 632.585 210.111L632.578 210.221C626.362 245.203 593.485 269.337 549.101 269.337C520.681 269.337 497.942 259.996 482.305 243.148C466.664 226.294 458.077 201.873 458.077 171.621C458.077 141.64 466.753 116.81 482.222 99.4817C497.685 82.1594 519.976 72.2894 547.306 72.2893ZM663.583 7.46997H706.268C706.544 7.46997 706.768 7.69384 706.768 7.96997V107.756C706.768 108.398 707.288 108.918 707.93 108.918C708.321 108.918 708.68 108.721 708.894 108.406L708.976 108.264C719.717 86.4002 741.159 73.0071 767.745 73.0071C791.56 73.0071 811.018 82.3267 824.534 99.1917C838.06 116.069 845.668 140.546 845.668 170.903C845.668 201.26 838.104 225.692 824.602 242.524C811.109 259.343 791.651 268.619 767.745 268.619C740.49 268.619 719.609 255.784 708.396 234.658L707.868 233.646C707.689 233.294 707.326 233.068 706.926 233.068C706.343 233.068 705.87 233.54 705.87 234.122V265.067C705.87 265.343 705.646 265.567 705.37 265.567H663.583C663.307 265.567 663.083 265.343 663.083 265.067V7.96997C663.083 7.69382 663.307 7.46997 663.583 7.46997ZM100.37 7.46997H151.176C151.362 7.47009 151.53 7.57321 151.616 7.73364L151.647 7.80493L219.691 202.86C219.872 203.376 220.358 203.723 220.905 203.723C221.432 203.723 221.901 203.402 222.097 202.921L222.132 202.823L283.599 7.81958C283.664 7.61155 283.857 7.47002 284.075 7.46997H323.489C323.688 7.47009 323.864 7.58688 323.944 7.76294L323.973 7.84204L375.637 202.669C375.801 203.29 376.364 203.723 377.006 203.723C377.625 203.723 378.168 203.321 378.354 202.74L378.387 202.621L422.911 7.85864C422.963 7.63129 423.165 7.46997 423.398 7.46997H469.393C469.68 7.47009 469.899 7.70854 469.893 7.98071L469.875 8.09985L400.961 265.196C400.902 265.414 400.705 265.567 400.479 265.567H358.395C358.199 265.567 358.024 265.452 357.942 265.28L357.913 265.202L305.385 79.2043C305.202 78.5582 304.612 78.1116 303.94 78.1116H303.636C303.022 78.1117 302.475 78.4852 302.247 79.0461L302.205 79.1604L243.512 265.217C243.446 265.425 243.253 265.567 243.035 265.567H195.319L126.34 52.6018L126.229 52.2561H124.243L124.133 52.6018L55.1533 265.567H9.19727C8.87349 265.567 8.64054 265.266 8.70801 264.96L8.72559 264.9L99.8984 7.80298C99.9692 7.60344 100.158 7.46997 100.37 7.46997ZM753.927 108.816C739.945 108.816 728.092 115.045 719.747 125.935C711.41 136.815 706.589 152.327 706.589 170.903C706.589 189.657 711.41 205.17 719.748 216.006C728.094 226.853 739.947 232.989 753.927 232.99C768.437 232.99 780.206 226.993 788.333 216.204C796.449 205.431 800.906 189.917 800.906 170.903C800.906 151.977 796.403 136.463 788.266 125.668C780.117 114.859 768.349 108.816 753.927 108.816ZM547.485 105.943C522.792 105.943 504.815 124.295 502.141 149.892L502.024 151.115C501.951 151.987 502.643 152.729 503.512 152.729H590.239C591.035 152.729 591.686 152.104 591.729 151.324V151.166C591.074 137.876 586.433 126.568 578.729 118.578C571.022 110.585 560.278 105.943 547.485 105.943Z" fill="#28292B" stroke="#4B4C4E"/>
</g>
</g>
<defs>
<linearGradient id="paint0_linear_78_79" x1="429.5" y1="0" x2="429.5" y2="285" gradientUnits="userSpaceOnUse">
<stop stop-color="#D9D9D9"/>
<stop offset="0.408051" stop-color="#999999" stop-opacity="0.373576"/>
<stop offset="1" stop-color="#737373" stop-opacity="0"/>
</linearGradient>
</defs>
</svg>
