<svg width="1438" height="1438" viewBox="0 0 1438 1438" fill="none" xmlns="http://www.w3.org/2000/svg">
<path d="M454.487 736.966C474.794 716.659 507.719 716.659 528.026 736.966L695.535 904.474L342.01 1258H324C244.471 1258 180 1193.53 180 1114V1011.45L454.487 736.966ZM872.164 854.77C892.471 834.462 925.396 834.463 945.703 854.77L1252.1 1161.16C1232.57 1217.53 1179.01 1258 1116 1258H468.933L872.164 854.77ZM1116 178C1195.53 178 1260 242.471 1260 322V1041.99L997.398 779.389C948.583 730.574 869.437 730.573 820.621 779.389L758.969 841.041L579.539 661.611C530.724 612.796 451.578 612.796 402.763 661.611L180 884.373V322C180 242.471 244.471 178 324 178H1116ZM916.5 390C842.218 390 782 450.218 782 524.5C782 598.782 842.218 659 916.5 659C990.782 659 1051 598.782 1051 524.5C1051 450.218 990.782 390 916.5 390ZM916 481C940.853 481 961 501.147 961 526C961 550.853 940.853 571 916 571C891.147 571 871 550.853 871 526C871 501.147 891.147 481 916 481Z" fill="white"/>
</svg>
