<svg width="1438" height="1438" viewBox="0 0 1438 1438" fill="none" xmlns="http://www.w3.org/2000/svg">
<path fill-rule="evenodd" clip-rule="evenodd" d="M944.003 148C968.304 148 988.003 167.7 988.003 192C988.003 216.3 968.304 236 944.003 236H926.003V593.894C926.003 615.14 932.388 635.897 944.329 653.47L1229.03 1072.44C1291.28 1164.06 1225.66 1288 1114.88 1288H321.111C210.24 1288 144.635 1163.87 207.089 1072.26L492.584 653.516C504.584 635.915 511.003 615.106 511.003 593.804V236H494.003C469.703 236 450.003 216.301 450.003 192C450.003 167.699 469.703 148 494.003 148H944.003ZM889 957C845.37 957 810 992.37 810 1036C810 1079.63 845.37 1115 889 1115C932.631 1115 968 1079.63 968 1036C968 992.37 932.631 957 889 957ZM628 775C593.759 775 566 802.758 566 837C566 871.242 593.759 899 628 899C662.242 899 690 871.242 690 837C690 802.758 662.242 775 628 775ZM598 240V482H840V240H598Z" fill="white"/>
</svg>
