<svg width="14" height="14" viewBox="0 0 14 14" fill="none" xmlns="http://www.w3.org/2000/svg">
<path d="M6.72168 6.78516C6.87613 6.70796 7.05442 6.69793 7.21484 6.75586L7.28223 6.78516L12.3213 9.30469C12.7544 9.52141 12.7815 10.1143 12.4023 10.3779L12.3213 10.4258L7.28223 12.9453C7.1278 13.0225 6.94948 13.0325 6.78906 12.9746L6.72168 12.9453L1.68262 10.4258C1.24934 10.2091 1.2223 9.61617 1.60156 9.35254L1.68262 9.30469L6.72168 6.78516Z" stroke="#9B69FF" stroke-width="0.5"/>
<path d="M6.72168 3.92969C6.87613 3.85249 7.05442 3.84246 7.21484 3.90039L7.28223 3.92969L12.3213 6.44922C12.7544 6.66594 12.7815 7.25882 12.4023 7.52246L12.3213 7.57031L7.28223 10.0898C7.1278 10.1671 6.94948 10.177 6.78906 10.1191L6.72168 10.0898L1.68262 7.57031C1.24934 7.35362 1.2223 6.7607 1.60156 6.49707L1.68262 6.44922L6.72168 3.92969Z" stroke="#9B69FF" stroke-width="0.5"/>
<path d="M6.60965 0.74884C6.85656 0.625386 7.14718 0.625387 7.39409 0.748841L12.433 3.26829C13.0794 3.5915 13.0794 4.51396 12.433 4.83717L7.39409 7.35662C7.14718 7.48008 6.85656 7.48008 6.60965 7.35662L1.57075 4.83717C0.924333 4.51396 0.924335 3.5915 1.57075 3.26829L6.60965 0.74884Z" fill="#9B69FF"/>
</svg>
