<svg width="109" height="30" viewBox="0 0 109 30" fill="none" xmlns="http://www.w3.org/2000/svg">
<path d="M37.5854 15.42H40.6584C40.5967 16.4271 40.3192 17.3213 39.8259 18.1024C39.3394 18.8835 38.6577 19.4933 37.7807 19.9318C36.9105 20.3703 35.8622 20.5895 34.6358 20.5895C33.6765 20.5895 32.8166 20.4251 32.0561 20.0962C31.2956 19.7605 30.6447 19.2809 30.1034 18.6574C29.569 18.0339 29.1613 17.2802 28.8804 16.3963C28.5994 15.5124 28.459 14.5224 28.459 13.4261V12.3881C28.459 11.2918 28.6029 10.3018 28.8906 9.4179C29.1853 8.52718 29.6032 7.77007 30.1445 7.14657C30.6926 6.52307 31.347 6.04345 32.1075 5.70772C32.868 5.37199 33.7176 5.20412 34.6563 5.20412C35.9033 5.20412 36.955 5.43023 37.8115 5.88244C38.6748 6.33465 39.3428 6.95815 39.8156 7.75294C40.2952 8.54773 40.583 9.45215 40.6789 10.4662H37.5957C37.5614 9.86325 37.4415 9.3528 37.236 8.93485C37.0304 8.51005 36.7187 8.19145 36.3007 7.97905C35.8896 7.75979 35.3415 7.65017 34.6563 7.65017C34.1424 7.65017 33.6937 7.74609 33.31 7.93794C32.9263 8.12978 32.6042 8.42098 32.3439 8.81152C32.0835 9.20207 31.8882 9.69539 31.7581 10.2915C31.6347 10.8807 31.5731 11.5727 31.5731 12.3675V13.4261C31.5731 14.2004 31.6313 14.8821 31.7478 15.4713C31.8643 16.0537 32.0424 16.547 32.2822 16.9513C32.5289 17.3487 32.844 17.6502 33.2277 17.8557C33.6183 18.0544 34.0876 18.1538 34.6358 18.1538C35.2798 18.1538 35.8108 18.051 36.2288 17.8454C36.6467 17.6399 36.9653 17.335 37.1846 16.9307C37.4107 16.5265 37.5443 16.0229 37.5854 15.42Z" fill="#54555D"/>
<path d="M41.8148 14.9369V14.7211C41.8148 13.9057 41.9313 13.1555 42.1642 12.4703C42.3972 11.7783 42.7363 11.1788 43.1817 10.6717C43.6271 10.1647 44.1752 9.77076 44.8261 9.48984C45.477 9.20207 46.2238 9.05818 47.0666 9.05818C47.9093 9.05818 48.6596 9.20207 49.3174 9.48984C49.9751 9.77076 50.5267 10.1647 50.972 10.6717C51.4242 11.1788 51.7668 11.7783 51.9998 12.4703C52.2327 13.1555 52.3492 13.9057 52.3492 14.7211V14.9369C52.3492 15.7454 52.2327 16.4957 51.9998 17.1877C51.7668 17.8728 51.4242 18.4724 50.972 18.9862C50.5267 19.4933 49.9785 19.8872 49.3276 20.1682C48.6767 20.4491 47.9299 20.5895 47.0871 20.5895C46.2444 20.5895 45.4941 20.4491 44.8364 20.1682C44.1855 19.8872 43.6339 19.4933 43.1817 18.9862C42.7363 18.4724 42.3972 17.8728 42.1642 17.1877C41.9313 16.4957 41.8148 15.7454 41.8148 14.9369ZM44.7747 14.7211V14.9369C44.7747 15.4028 44.8158 15.8379 44.898 16.2422C44.9803 16.6464 45.1104 17.0027 45.2886 17.311C45.4736 17.6125 45.7134 17.8489 46.008 18.0202C46.3026 18.1914 46.6623 18.2771 47.0871 18.2771C47.4982 18.2771 47.8511 18.1914 48.1457 18.0202C48.4403 17.8489 48.6767 17.6125 48.8549 17.311C49.033 17.0027 49.1632 16.6464 49.2454 16.2422C49.3345 15.8379 49.379 15.4028 49.379 14.9369V14.7211C49.379 14.2689 49.3345 13.8441 49.2454 13.4467C49.1632 13.0424 49.0296 12.6861 48.8446 12.3778C48.6665 12.0626 48.4301 11.816 48.1354 11.6378C47.8408 11.4597 47.4845 11.3706 47.0666 11.3706C46.6486 11.3706 46.2924 11.4597 45.9977 11.6378C45.71 11.816 45.4736 12.0626 45.2886 12.3778C45.1104 12.6861 44.9803 13.0424 44.898 13.4467C44.8158 13.8441 44.7747 14.2689 44.7747 14.7211Z" fill="#54555D"/>
<path d="M56.9178 11.4015V24.6594H53.9579V9.26373H56.7019L56.9178 11.4015ZM63.9579 14.7005V14.9164C63.9579 15.7249 63.8619 16.4751 63.6701 17.1671C63.4851 17.8591 63.211 18.4621 62.8479 18.976C62.4847 19.483 62.0325 19.8804 61.4913 20.1682C60.9568 20.4491 60.3402 20.5895 59.6413 20.5895C58.963 20.5895 58.3738 20.4525 57.8736 20.1784C57.3734 19.9044 56.952 19.5207 56.6094 19.0274C56.2737 18.5272 56.0031 17.9482 55.7975 17.2905C55.592 16.6327 55.4344 15.927 55.3248 15.1733V14.608C55.4344 13.7995 55.592 13.0596 55.7975 12.3881C56.0031 11.7098 56.2737 11.124 56.6094 10.6306C56.952 10.1305 57.37 9.74335 57.8633 9.46928C58.3635 9.19522 58.9493 9.05818 59.6208 9.05818C60.3265 9.05818 60.9465 9.19179 61.481 9.45901C62.0223 9.72622 62.4745 10.1099 62.8376 10.6101C63.2076 11.1103 63.4851 11.7064 63.6701 12.3984C63.8619 13.0904 63.9579 13.8578 63.9579 14.7005ZM60.9877 14.9164V14.7005C60.9877 14.2278 60.9465 13.7927 60.8643 13.3953C60.789 12.991 60.6656 12.6382 60.4943 12.3367C60.3299 12.0352 60.1106 11.8023 59.8366 11.6378C59.5694 11.4665 59.2439 11.3809 58.8602 11.3809C58.456 11.3809 58.11 11.446 57.8222 11.5762C57.5413 11.7064 57.3117 11.8948 57.1336 12.1414C56.9555 12.3881 56.8218 12.6827 56.7328 13.0253C56.6437 13.3679 56.5889 13.755 56.5683 14.1867V15.6152C56.6026 16.1222 56.6985 16.5779 56.8561 16.9821C57.0137 17.3795 57.2569 17.6947 57.5858 17.9277C57.9147 18.1606 58.3463 18.2771 58.8808 18.2771C59.2713 18.2771 59.6002 18.1914 59.8674 18.0202C60.1346 17.842 60.3505 17.5988 60.5149 17.2905C60.6862 16.9821 60.8061 16.6258 60.8746 16.2216C60.95 15.8173 60.9877 15.3823 60.9877 14.9164Z" fill="#54555D"/>
<path d="M68.7628 19.1301L71.7124 9.26373H74.8882L70.4175 22.0592C70.3215 22.3401 70.1914 22.6416 70.0269 22.9636C69.8693 23.2857 69.6535 23.5906 69.3794 23.8783C69.1122 24.1729 68.7731 24.4128 68.362 24.5978C67.9577 24.7827 67.461 24.8752 66.8717 24.8752C66.5908 24.8752 66.3613 24.8581 66.1831 24.8239C66.005 24.7896 65.7926 24.7416 65.5459 24.68V22.5114C65.6213 22.5114 65.7001 22.5114 65.7823 22.5114C65.8645 22.5183 65.9433 22.5217 66.0187 22.5217C66.4092 22.5217 66.7278 22.4772 66.9745 22.3881C67.2212 22.299 67.4199 22.162 67.5706 21.977C67.7213 21.7988 67.8412 21.5659 67.9303 21.2781L68.7628 19.1301ZM67.5295 9.26373L69.9447 17.3213L70.3661 20.4559L68.3517 20.6717L64.3537 9.26373H67.5295Z" fill="#54555D"/>
<path d="M79.652 18.0099L82.6325 5.41995H84.2974L84.6777 7.51656L81.502 20.384H79.7137L79.652 18.0099ZM78.1207 5.41995L80.5873 18.0099L80.3817 20.384H78.3879L75.0682 5.41995H78.1207ZM87.2985 17.9585L89.7342 5.41995H92.7866L89.4773 20.384H87.4835L87.2985 17.9585ZM85.2327 5.41995L88.2337 18.0613L88.1515 20.384H86.3632L83.1669 7.50628L83.578 5.41995H85.2327Z" fill="#54555D"/>
<path d="M97.1908 9.26373V20.384H94.2206V9.26373H97.1908ZM94.0356 6.36548C94.0356 5.93383 94.1863 5.57754 94.4878 5.29662C94.7892 5.0157 95.1935 4.87524 95.7005 4.87524C96.2007 4.87524 96.6015 5.0157 96.903 5.29662C97.2113 5.57754 97.3655 5.93383 97.3655 6.36548C97.3655 6.79714 97.2113 7.15342 96.903 7.43434C96.6015 7.71526 96.2007 7.85572 95.7005 7.85572C95.1935 7.85572 94.7892 7.71526 94.4878 7.43434C94.1863 7.15342 94.0356 6.79714 94.0356 6.36548Z" fill="#54555D"/>
<path d="M108.275 18.0715V20.384H99.8271V18.0715H108.275ZM108.111 10.9698L101.019 20.384H99.0358V18.6265L106.096 9.26373H108.111V10.9698ZM107.062 9.26373V11.5864H99.2002V9.26373H107.062Z" fill="#54555D"/>
<path d="M11.4332 5.34949C11.7227 5.37254 15.0748 5.33897 13.9741 6.15707C12.7534 7.0644 11.2253 7.58937 9.8758 8.26382C9.32747 8.53786 8.09996 8.98508 7.74467 9.59224C7.46684 10.067 8.52717 10.3379 8.72827 10.4057C10.5313 11.0133 12.4854 11.2222 14.3605 11.4883C14.908 11.566 16.9421 11.5763 15.2797 11.9565C12.5505 12.5807 9.83444 13.0993 7.16505 13.9696C6.34973 14.2354 5.24255 14.4873 4.48943 14.9469C4.038 15.2224 5.53546 15.1354 6.06436 15.14C9.2706 15.1681 12.4774 15.1363 15.6837 15.1459C16.983 15.1497 18.4121 15.0421 19.7059 15.2629C19.7835 15.2761 19.9481 15.2821 19.9225 15.3565C19.8194 15.6573 19.3117 15.5414 18.9975 15.5906C15.8741 16.0797 12.8271 16.4513 9.78212 17.3755C8.43533 17.7843 6.75187 18.2292 5.53157 19.0082C5.45887 19.0546 5.3735 19.1268 5.3735 19.213C5.3735 19.4789 5.88134 19.3886 6.14632 19.412C10.1834 19.7689 14.2702 19.806 18.3183 19.9446C20.336 20.0136 22.3688 20.015 24.3839 20.1552C24.5838 20.1691 24.7975 20.145 24.981 20.2255C25.3659 20.3942 24.1481 20.3514 23.7281 20.3659C18.5023 20.5464 13.2708 20.3009 8.04912 20.6702C5.63718 20.8408 3.27002 21.0823 1 21.8874" stroke="#54555D" stroke-width="2" stroke-linecap="round"/>
</svg>
