<svg width="131" height="30" viewBox="0 0 131 30" fill="none" xmlns="http://www.w3.org/2000/svg">
<path d="M0 5.15302H8.28061V7.9308H3.13013V13.3475H7.17083V16.1252H3.13013V24.5975H0V5.15302Z" fill="#54555D"/>
<path d="M9.78164 5.15302H14.4199C16.0324 5.15302 17.2086 5.52339 17.9484 6.26413C18.6883 6.98636 19.0582 8.10673 19.0582 9.62524V10.8197C19.0582 12.8382 18.3753 14.116 17.0094 14.653V14.7086C17.7682 14.9308 18.2994 15.3845 18.6029 16.0697C18.9254 16.7549 19.0867 17.6715 19.0867 18.8197V22.2364C19.0867 22.7919 19.1056 23.2456 19.1436 23.5975C19.1815 23.9308 19.2764 24.2641 19.4281 24.5975H16.2411C16.1273 24.2827 16.0514 23.9864 16.0134 23.7086C15.9755 23.4308 15.9565 22.9308 15.9565 22.2086V18.653C15.9565 17.7641 15.8048 17.1438 15.5012 16.7919C15.2167 16.4401 14.714 16.2641 13.9931 16.2641H12.9118V24.5975H9.78164V5.15302ZM14.05 13.4864C14.676 13.4864 15.1408 13.3289 15.4443 13.0141C15.7668 12.6993 15.9281 12.1715 15.9281 11.4308V9.9308C15.9281 9.2271 15.7953 8.71784 15.5297 8.40302C15.2831 8.08821 14.8847 7.9308 14.3346 7.9308H12.9118V13.4864H14.05Z" fill="#54555D"/>
<path d="M25.7829 24.8752C24.2462 24.8752 23.0701 24.4493 22.2544 23.5975C21.4386 22.7456 21.0308 21.5419 21.0308 19.9864V9.76413C21.0308 8.20858 21.4386 7.00487 22.2544 6.15302C23.0701 5.30117 24.2462 4.87524 25.7829 4.87524C27.3195 4.87524 28.4956 5.30117 29.3114 6.15302C30.1271 7.00487 30.535 8.20858 30.535 9.76413V19.9864C30.535 21.5419 30.1271 22.7456 29.3114 23.5975C28.4956 24.4493 27.3195 24.8752 25.7829 24.8752ZM25.7829 22.0975C26.8642 22.0975 27.4048 21.4586 27.4048 20.1808V9.56969C27.4048 8.29191 26.8642 7.65302 25.7829 7.65302C24.7015 7.65302 24.1609 8.29191 24.1609 9.56969V20.1808C24.1609 21.4586 24.7015 22.0975 25.7829 22.0975Z" fill="#54555D"/>
<path d="M36.721 24.8752C35.2033 24.8752 34.0556 24.4586 33.2778 23.6252C32.5 22.7734 32.1111 21.5604 32.1111 19.9864V18.8752H35.0705V20.2086C35.0705 21.4678 35.6112 22.0975 36.6925 22.0975C37.2237 22.0975 37.6221 21.9493 37.8876 21.653C38.1722 21.3382 38.3145 20.8382 38.3145 20.153C38.3145 19.3382 38.1248 18.6252 37.7454 18.0141C37.366 17.3845 36.664 16.6345 35.6396 15.7641C34.3497 14.653 33.4486 13.653 32.9364 12.7641C32.4241 11.8567 32.168 10.8382 32.168 9.70858C32.168 8.17154 32.5664 6.98636 33.3632 6.15302C34.1599 5.30117 35.3171 4.87524 36.8348 4.87524C38.3334 4.87524 39.4622 5.30117 40.221 6.15302C40.9988 6.98636 41.3877 8.19006 41.3877 9.76413V10.5697H38.4283V9.56969C38.4283 8.90302 38.2955 8.42154 38.0299 8.12524C37.7643 7.81043 37.3754 7.65302 36.8632 7.65302C35.8199 7.65302 35.2982 8.27339 35.2982 9.51413C35.2982 10.2178 35.4879 10.8752 35.8673 11.4864C36.2657 12.0975 36.9771 12.8382 38.0015 13.7086C39.3104 14.8197 40.2115 15.8289 40.7048 16.7364C41.198 17.6438 41.4446 18.7086 41.4446 19.9308C41.4446 21.5234 41.0367 22.7456 40.221 23.5975C39.4242 24.4493 38.2576 24.8752 36.721 24.8752Z" fill="#54555D"/>
<path d="M45.6865 7.9308H42.4141V5.15302H52.089V7.9308H48.8166V24.5975H45.6865V7.9308Z" fill="#54555D"/>
<path d="M57.904 24.8752C56.4053 24.8752 55.2576 24.4586 54.4609 23.6252C53.6831 22.7919 53.2942 21.616 53.2942 20.0975V9.65302C53.2942 8.1345 53.6831 6.95858 54.4609 6.12524C55.2576 5.29191 56.4053 4.87524 57.904 4.87524C59.4027 4.87524 60.5409 5.29191 61.3187 6.12524C62.1154 6.95858 62.5138 8.1345 62.5138 9.65302V11.7086H59.5544V9.45858C59.5544 8.25487 59.0327 7.65302 57.9894 7.65302C56.946 7.65302 56.4243 8.25487 56.4243 9.45858V20.3197C56.4243 21.5049 56.946 22.0975 57.9894 22.0975C59.0327 22.0975 59.5544 21.5049 59.5544 20.3197V17.3475H62.5138V20.0975C62.5138 21.616 62.1154 22.7919 61.3187 23.6252C60.5409 24.4586 59.4027 24.8752 57.904 24.8752Z" fill="#54555D"/>
<path d="M64.3866 5.15302H67.5167V13.0697H70.8745V5.15302H74.0046V24.5975H70.8745V15.8475H67.5167V24.5975H64.3866V5.15302Z" fill="#54555D"/>
<path d="M78.7545 5.15302H82.9944L86.2383 24.5975H83.1082L82.5391 20.7364V20.7919H78.9821L78.413 24.5975H75.5105L78.7545 5.15302ZM82.1691 18.153L80.7748 8.54191H80.7179L79.352 18.153H82.1691Z" fill="#54555D"/>
<path d="M87.7569 5.15302H91.6838L94.7285 16.7919H94.7855V5.15302H97.5741V24.5975H94.3586L90.6025 10.403H90.5456V24.5975H87.7569V5.15302Z" fill="#54555D"/>
<path d="M104.34 24.8752C102.822 24.8752 101.665 24.4586 100.868 23.6252C100.071 22.7734 99.6729 21.5604 99.6729 19.9864V9.76413C99.6729 8.19006 100.071 6.98636 100.868 6.15302C101.665 5.30117 102.822 4.87524 104.34 4.87524C105.857 4.87524 107.015 5.30117 107.811 6.15302C108.608 6.98636 109.006 8.19006 109.006 9.76413V11.4308H106.047V9.56969C106.047 8.29191 105.506 7.65302 104.425 7.65302C103.344 7.65302 102.803 8.29191 102.803 9.56969V20.2086C102.803 21.4678 103.344 22.0975 104.425 22.0975C105.506 22.0975 106.047 21.4678 106.047 20.2086V16.403H104.482V13.6252H109.006V19.9864C109.006 21.5604 108.608 22.7734 107.811 23.6252C107.015 24.4586 105.857 24.8752 104.34 24.8752Z" fill="#54555D"/>
<path d="M111.016 5.15302H119.553V7.9308H114.146V13.0697H118.443V15.8475H114.146V21.8197H119.553V24.5975H111.016V5.15302Z" fill="#54555D"/>
<path d="M121.354 5.15302H125.992C127.604 5.15302 128.78 5.52339 129.52 6.26413C130.26 6.98636 130.63 8.10673 130.63 9.62524V10.8197C130.63 12.8382 129.947 14.116 128.581 14.653V14.7086C129.34 14.9308 129.871 15.3845 130.175 16.0697C130.497 16.7549 130.659 17.6715 130.659 18.8197V22.2364C130.659 22.7919 130.678 23.2456 130.715 23.5975C130.753 23.9308 130.848 24.2641 131 24.5975H127.813C127.699 24.2827 127.623 23.9864 127.585 23.7086C127.547 23.4308 127.528 22.9308 127.528 22.2086V18.653C127.528 17.7641 127.377 17.1438 127.073 16.7919C126.789 16.4401 126.286 16.2641 125.565 16.2641H124.484V24.5975H121.354V5.15302ZM125.622 13.4864C126.248 13.4864 126.713 13.3289 127.016 13.0141C127.339 12.6993 127.5 12.1715 127.5 11.4308V9.9308C127.5 9.2271 127.367 8.71784 127.102 8.40302C126.855 8.08821 126.457 7.9308 125.906 7.9308H124.484V13.4864H125.622Z" fill="#54555D"/>
</svg>
