<svg width="117" height="32" viewBox="0 0 117 32" fill="none" xmlns="http://www.w3.org/2000/svg">
<path d="M31.5391 24.7668V8.40047H33.9261L39.4041 19.9933L44.8821 8.40047H47.2691V24.7668H44.7941V14.2765L39.9321 24.7668H38.8761L34.0251 14.2765V24.7668H31.5391Z" fill="#54555D"/>
<path d="M54.7264 25.1078C53.5384 25.1078 52.5007 24.8312 51.6134 24.2781C50.726 23.725 50.0367 22.9635 49.5454 21.9936C49.0614 21.0162 48.8194 19.8948 48.8194 18.6295C48.8194 17.3414 49.0687 16.2124 49.5674 15.2425C50.066 14.2727 50.759 13.515 51.6464 12.9694C52.5337 12.4239 53.5604 12.1511 54.7264 12.1511C55.9217 12.1511 56.963 12.4277 57.8504 12.9808C58.7377 13.5339 59.427 14.2992 59.9184 15.2766C60.4097 16.2465 60.6554 17.3641 60.6554 18.6295C60.6554 19.9024 60.406 21.0276 59.9074 22.005C59.416 22.9749 58.7267 23.7364 57.8394 24.2895C56.952 24.835 55.9144 25.1078 54.7264 25.1078ZM54.7264 22.5392C55.7824 22.5392 56.567 22.1755 57.0804 21.4481C57.5937 20.7207 57.8504 19.7812 57.8504 18.6295C57.8504 17.4399 57.59 16.4927 57.0694 15.7881C56.5487 15.0758 55.7677 14.7197 54.7264 14.7197C54.015 14.7197 53.4284 14.8864 52.9664 15.2198C52.5117 15.5456 52.1744 16.004 51.9544 16.595C51.7344 17.1785 51.6244 17.8566 51.6244 18.6295C51.6244 19.819 51.8847 20.77 52.4054 21.4822C52.9334 22.1869 53.707 22.5392 54.7264 22.5392Z" fill="#54555D"/>
<path d="M69.162 24.7668C68.3773 24.9184 67.6073 24.9828 66.852 24.9601C66.104 24.9449 65.433 24.8047 64.839 24.5395C64.245 24.2668 63.794 23.8387 63.486 23.2552C63.2147 22.7248 63.0717 22.1831 63.057 21.63C63.0423 21.0768 63.035 20.4517 63.035 19.7546V9.0824H65.675V19.5955C65.675 20.088 65.6787 20.5199 65.686 20.8912C65.7007 21.2625 65.7777 21.5655 65.917 21.8004C66.181 22.2551 66.6027 22.5089 67.182 22.5619C67.7613 22.615 68.4213 22.5847 69.162 22.471V24.7668ZM60.879 14.6401V12.4921H69.162V14.6401H60.879Z" fill="#54555D"/>
<path d="M71.0566 10.6281V8.11633H73.7076V10.6281H71.0566ZM71.0566 24.7668V12.4921H73.7076V24.7668H71.0566Z" fill="#54555D"/>
<path d="M81.5236 25.1078C80.3209 25.1078 79.2649 24.8388 78.3556 24.3009C77.4462 23.7629 76.7349 23.0165 76.2216 22.0618C75.7156 21.1071 75.4626 20.0085 75.4626 18.7658C75.4626 17.4247 75.7119 16.2616 76.2106 15.2766C76.7092 14.284 77.4022 13.515 78.2896 12.9694C79.1769 12.4239 80.2036 12.1511 81.3696 12.1511C82.6016 12.1511 83.6466 12.4504 84.5046 13.049C85.3699 13.64 86.0116 14.4772 86.4296 15.5608C86.8476 16.6443 87.0052 17.921 86.9026 19.3909H84.2736V18.3908C84.2662 17.0572 84.0389 16.0836 83.5916 15.4698C83.1442 14.8561 82.4402 14.5492 81.4796 14.5492C80.3942 14.5492 79.5876 14.8978 79.0596 15.5949C78.5316 16.2844 78.2676 17.2959 78.2676 18.6295C78.2676 19.8721 78.5316 20.8344 79.0596 21.5163C79.5876 22.1982 80.3576 22.5392 81.3696 22.5392C82.0222 22.5392 82.5832 22.3914 83.0526 22.0959C83.5292 21.7929 83.8959 21.3572 84.1526 20.7889L86.7706 21.6072C86.3159 22.7135 85.6119 23.5735 84.6586 24.1872C83.7126 24.8009 82.6676 25.1078 81.5236 25.1078ZM77.4316 19.3909V17.3224H85.6046V19.3909H77.4316Z" fill="#54555D"/>
<path d="M86.717 30.2223V27.6537H87.278C87.9233 27.6537 88.3816 27.4984 88.653 27.1877C88.9243 26.877 89.06 26.4186 89.06 25.8125V12.4921H91.7V27.0399C91.7 28.0325 91.4176 28.8092 90.853 29.3699C90.2956 29.9382 89.5183 30.2223 88.521 30.2223H86.717ZM89.06 10.6281V8.11633H91.7V10.6281H89.06Z" fill="#54555D"/>
<path d="M98.3898 25.1192C97.5098 25.1192 96.7838 24.9676 96.2118 24.6646C95.6398 24.3615 95.1852 23.975 94.8478 23.5053C94.5105 23.0355 94.2612 22.5354 94.0998 22.005C93.9385 21.4746 93.8322 20.9745 93.7808 20.5048C93.7368 20.0274 93.7148 19.641 93.7148 19.3455V12.4921H96.3988V18.4021C96.3988 18.781 96.4245 19.2091 96.4758 19.6864C96.5272 20.1562 96.6445 20.6108 96.8278 21.0503C97.0185 21.4822 97.2972 21.8383 97.6638 22.1187C98.0378 22.399 98.5402 22.5392 99.1708 22.5392C99.5082 22.5392 99.8418 22.4824 100.172 22.3687C100.502 22.2551 100.799 22.0618 101.063 21.7891C101.334 21.5087 101.551 21.1261 101.712 20.6412C101.873 20.1562 101.954 19.5425 101.954 18.7999L103.527 19.4932C103.527 20.5389 103.329 21.486 102.933 22.3346C102.544 23.1832 101.969 23.8614 101.206 24.369C100.443 24.8691 99.5045 25.1192 98.3898 25.1192ZM102.273 24.7668V20.9594H101.954V12.4921H104.616V24.7668H102.273Z" fill="#54555D"/>
<path d="M111.413 25.1078C109.947 25.1078 108.755 24.7668 107.838 24.0849C106.922 23.403 106.364 22.4445 106.166 21.2094L108.872 20.7775C109.012 21.3837 109.32 21.8611 109.796 22.2096C110.273 22.5581 110.874 22.7324 111.6 22.7324C112.238 22.7324 112.73 22.6036 113.074 22.346C113.426 22.0808 113.602 21.7209 113.602 21.2663C113.602 20.9859 113.536 20.7624 113.404 20.5957C113.28 20.4214 113.001 20.2547 112.568 20.0956C112.136 19.9365 111.472 19.7357 110.577 19.4932C109.58 19.2205 108.788 18.9287 108.201 18.6181C107.615 18.2999 107.193 17.9248 106.936 17.4929C106.68 17.061 106.551 16.5382 106.551 15.9245C106.551 15.1592 106.746 14.4924 107.134 13.9241C107.523 13.3558 108.066 12.9202 108.762 12.6171C109.459 12.3064 110.28 12.1511 111.226 12.1511C112.15 12.1511 112.968 12.2988 113.679 12.5944C114.398 12.8899 114.977 13.3104 115.417 13.8559C115.857 14.4015 116.129 15.0417 116.231 15.7767L113.525 16.2768C113.459 15.754 113.228 15.341 112.832 15.0379C112.444 14.7349 111.923 14.5644 111.27 14.5265C110.647 14.4886 110.145 14.5871 109.763 14.822C109.382 15.0493 109.191 15.3713 109.191 15.7881C109.191 16.023 109.268 16.2237 109.422 16.3904C109.576 16.5571 109.884 16.7238 110.346 16.8905C110.816 17.0572 111.512 17.2618 112.436 17.5043C113.382 17.7543 114.138 18.0422 114.702 18.368C115.274 18.6863 115.685 19.0689 115.934 19.516C116.191 19.963 116.319 20.5048 116.319 21.1412C116.319 22.3763 115.883 23.3461 115.01 24.0508C114.145 24.7555 112.946 25.1078 111.413 25.1078Z" fill="#54555D"/>
<path d="M16.3301 10.437L16.3809 10.4526C16.3955 10.4621 16.4079 10.4756 16.416 10.4917C17.4053 12.4698 18.4019 15.7086 19.1045 18.7505C19.456 20.2723 19.7345 21.7475 19.9014 22.9946C20.0677 24.2383 20.1244 25.2663 20.0273 25.8862C19.832 27.1333 19.0125 28.1538 17.6426 28.9507C16.2742 29.7466 14.3487 30.3247 11.9209 30.6909C9.47326 31.0601 7.34918 30.4493 5.73242 29.4546C4.2191 28.5234 3.14477 27.2529 2.66602 26.1274L2.57812 25.9048C2.36237 25.3075 2.31502 24.2656 2.37988 22.9927C2.44503 21.7142 2.6252 20.1858 2.875 18.604C3.37446 15.4413 4.15519 12.0548 4.86426 10.0142L4.87891 9.98584C4.89838 9.96066 4.9298 9.94633 4.96289 9.94775L16.3301 10.437Z" fill="black" stroke="#54555D" stroke-width="0.2" stroke-linecap="round" stroke-linejoin="round"/>
<path d="M16.3438 10.137L16.4473 10.1555C16.5465 10.1878 16.6306 10.2595 16.6787 10.3557L16.8662 10.7473C17.8075 12.7738 18.7313 15.8231 19.3916 18.6819L19.6426 19.8167C19.8783 20.9384 20.0671 22.01 20.1934 22.9543L20.251 23.4124C20.3557 24.3096 20.3982 25.0912 20.3506 25.6643L20.3193 25.9338C20.1188 27.2137 19.3174 28.2485 18.0488 29.053L17.7891 29.2112C16.5524 29.9305 14.8927 30.4686 12.8594 30.8391L11.9648 30.9875C9.60085 31.3441 7.52671 30.8135 5.90137 29.8997L5.58203 29.7122C4.02645 28.7551 2.90387 27.4394 2.39648 26.2454L2.30371 26.0081C2.06476 25.3463 2.02316 24.2472 2.08789 22.9768L2.11719 22.4807C2.19949 21.2982 2.3665 19.9455 2.58594 18.5559L2.78613 17.3586C3.28167 14.5533 3.96036 11.7203 4.58789 9.91431L4.61426 9.85474C4.68505 9.7238 4.82437 9.64115 4.97656 9.64771L16.3438 10.137ZM5.23633 10.4592C4.65063 12.2284 4.02081 14.8892 3.55469 17.5364L3.36328 18.6829C3.14615 20.0578 2.98345 21.3854 2.90332 22.5364L2.87402 23.0188C2.84166 23.6542 2.83974 24.2104 2.86816 24.6702C2.89671 25.1316 2.95541 25.4902 3.04297 25.7327L3.12207 25.9329C3.55353 26.9446 4.54797 28.1403 5.99023 29.0276L6.28223 29.1995C7.77094 30.0367 9.67256 30.525 11.8496 30.1965L12.7236 30.051C14.7038 29.6899 16.2666 29.1747 17.3975 28.5168L17.6318 28.3743C18.7684 27.654 19.3866 26.7938 19.541 25.8079L19.5664 25.5852C19.6054 25.1023 19.5717 24.3923 19.4697 23.5149L19.4131 23.0618C19.2899 22.1409 19.1043 21.0898 18.8721 19.9846L18.625 18.8645C17.9499 15.9418 17.0062 12.8675 16.0762 10.926L5.23633 10.4592Z" fill="#54555D" stroke="#54555D" stroke-width="0.2" stroke-linecap="round" stroke-linejoin="round"/>
<path d="M17.8105 6.93311L17.8252 6.93506L17.8242 6.93604C18.2631 7.06823 18.8814 7.28728 19.4395 7.59717C19.9935 7.90486 20.5082 8.31242 20.7129 8.82861L20.749 8.93799C20.7777 9.04529 20.7827 9.1467 20.7617 9.24072C20.7333 9.36738 20.66 9.47015 20.5566 9.55029C20.3558 9.70595 20.0329 9.78397 19.6523 9.81396C18.8975 9.8734 17.8386 9.7478 16.7969 9.54736L16.665 9.69971L16.666 9.70068C16.5313 9.86442 16.4304 10.1358 16.3496 10.5024C16.2694 10.8664 16.2118 11.3098 16.1562 11.8071C16.0455 12.7985 15.9421 13.9982 15.6729 15.1587C15.4036 16.3193 14.9661 17.453 14.1787 18.312C13.3881 19.1744 12.2527 19.7514 10.6074 19.8101L10.6006 19.811V19.8101C8.94616 19.7514 7.81067 19.1587 7.02637 18.272C6.2453 17.3889 5.81944 16.2228 5.5625 15.0308C5.30564 13.839 5.21541 12.6081 5.11426 11.5933C5.06349 11.0839 5.01036 10.6301 4.93262 10.2593C4.85422 9.88535 4.7542 9.61086 4.61914 9.44775L4.61426 9.44189L4.55371 9.35693C3.64045 9.4427 2.73686 9.45336 2.1084 9.31689C1.79009 9.24775 1.52365 9.13699 1.36816 8.9624C1.28838 8.87272 1.23789 8.76612 1.22656 8.64404C1.21543 8.52344 1.24253 8.3944 1.30469 8.2583L1.35254 8.16455C1.47461 7.95021 1.66841 7.75934 1.89648 7.59033C2.15821 7.39643 2.47265 7.22611 2.7959 7.08154C3.43758 6.79459 4.12535 6.60095 4.5332 6.50928L5.03418 6.3374L5.03809 6.33545L5.06738 6.43115L5.03906 6.33545L8.02344 5.45166L8.06738 5.44873L17.8105 6.93311Z" fill="black" stroke="#54555D" stroke-width="0.2" stroke-linecap="round" stroke-linejoin="round"/>
<path d="M8.11523 5.12L17.8594 6.60437L17.917 6.61804L18.2861 6.73718C18.684 6.87357 19.155 7.06236 19.5947 7.30652L19.8086 7.43152C20.3081 7.73858 20.7967 8.15443 21.0146 8.70398L21.0625 8.85046C21.0891 8.94996 21.1037 9.05282 21.0996 9.1571L21.0791 9.31433C21.0429 9.47632 20.9639 9.61012 20.8623 9.71667L20.7539 9.81433C20.5441 9.97702 20.264 10.0638 19.9717 10.1102L19.6777 10.1444C18.9252 10.2037 17.9115 10.09 16.9199 9.90808L16.9131 9.91492L16.9141 9.91589C16.8528 9.99122 16.788 10.1248 16.7266 10.3368L16.667 10.5751C16.629 10.7473 16.5958 10.9402 16.5654 11.1522L16.4795 11.8446L16.4307 12.2958C16.3472 13.075 16.2518 13.9678 16.0723 14.8553L15.9902 15.2352C15.7322 16.3475 15.3156 17.4698 14.5703 18.3632L14.416 18.5389C13.6143 19.4134 12.4924 20.003 10.9365 20.1239L10.6191 20.1415H10.5898C8.96464 20.0838 7.79006 19.5295 6.9502 18.6698L6.78613 18.494C6.05514 17.6675 5.62534 16.6221 5.35352 15.5585L5.24609 15.1024C5.07993 14.3315 4.98201 13.5443 4.90723 12.8163L4.83887 12.1112L4.79199 11.6259C4.75395 11.2442 4.715 10.9031 4.66699 10.6083L4.61523 10.329C4.5477 10.0069 4.46965 9.8106 4.39746 9.70203C3.6472 9.76406 2.89471 9.77694 2.29492 9.68738L2.04199 9.64148C1.74852 9.57776 1.44233 9.47116 1.21875 9.27527L1.12793 9.18542C1.03624 9.08237 0.966661 8.95954 0.929688 8.82019L0.904297 8.67566C0.886245 8.4811 0.932085 8.29229 1.01172 8.11804L1.07227 7.9989C1.22601 7.72854 1.45876 7.50438 1.70605 7.32117L1.92969 7.16785C2.1613 7.0203 2.41406 6.89089 2.66602 6.7782L2.91602 6.67175C3.49534 6.436 4.07579 6.27357 4.44629 6.18933L4.93066 6.02332L4.94824 6.01746L7.93359 5.13269L8.02344 5.11707C8.05397 5.11493 8.08478 5.11538 8.11523 5.12ZM5.19629 6.84167L5.19727 6.84265L4.70117 7.01355L4.65625 7.02625C4.32052 7.10124 3.77432 7.25251 3.2373 7.47058L3.00879 7.56824C2.78175 7.66978 2.56831 7.78029 2.38281 7.89832L2.20703 8.01843C2.03791 8.14373 1.91838 8.26444 1.84277 8.37488L1.78223 8.48132C1.76486 8.51931 1.75665 8.54691 1.75293 8.56531L1.75 8.5946C1.75003 8.59466 1.74986 8.59585 1.75098 8.59753C1.75221 8.59937 1.7544 8.60247 1.75781 8.60632L1.80664 8.64636C1.87392 8.69168 2.00151 8.74937 2.21973 8.79675L2.44336 8.83679C2.99595 8.91582 3.75716 8.90168 4.56348 8.82312L4.98828 8.77625C5.1295 8.75897 5.27012 8.73989 5.40918 8.7196L5.49609 8.7157C5.69431 8.72789 5.86185 8.88093 5.89062 9.08582L5.89355 9.17273C5.88354 9.34346 5.77412 9.49413 5.61426 9.55261L5.53027 9.5741C5.4521 9.5855 5.37301 9.5948 5.29395 9.60535C5.35754 9.77645 5.407 9.96101 5.44629 10.1483L5.50488 10.4637C5.55845 10.7919 5.59864 11.1569 5.63672 11.5389L5.68555 12.037L5.75293 12.7343C5.82589 13.4444 5.91911 14.1881 6.07617 14.9169L6.17676 15.3446C6.42922 16.331 6.81086 17.2304 7.41797 17.9169L7.54883 18.0575C8.22205 18.7487 9.18198 19.2235 10.6035 19.2772C12.1155 19.2203 13.1106 18.6975 13.7949 17.951L13.9229 17.8046C14.5445 17.059 14.9196 16.0867 15.1631 15.037L15.2402 14.6786C15.4097 13.8407 15.501 12.9927 15.585 12.2108L15.6357 11.7469L15.7246 11.0282C15.7573 10.7996 15.7944 10.5838 15.8379 10.3866L15.8877 10.1815C15.9296 10.0233 15.9811 9.87048 16.0439 9.72937L15.9609 9.71082C15.7309 9.65813 15.5893 9.42661 15.6396 9.19617L15.667 9.11316C15.7475 8.93065 15.9455 8.8229 16.1475 8.86902L16.8398 9.0155L17.2314 9.08777C18.1404 9.24687 19.0033 9.33201 19.6123 9.28406L19.8525 9.25574C20.0625 9.22119 20.1834 9.17035 20.2383 9.12781L20.249 9.11707C20.2489 9.11471 20.2494 9.11179 20.249 9.10828L20.2266 9.02722C20.1096 8.73215 19.8076 8.44092 19.3789 8.17566L19.1875 8.06335C18.6851 7.78439 18.1189 7.58041 17.7002 7.453L8.0791 5.98816L5.19629 6.84167Z" fill="#54555D" stroke="#54555D" stroke-width="0.2" stroke-linecap="round" stroke-linejoin="round"/>
<path d="M10.7129 14.1562C11.2608 14.058 11.7243 14.1422 12.0986 14.3906L12.248 14.502C12.5775 14.7791 12.7849 15.1707 12.916 15.5771L12.9678 15.752C13.1757 16.5231 13.1702 17.423 13.1182 18.0791L13.0918 18.3633C13.0223 19.0008 12.6282 19.3997 12.1885 19.6367L11.998 19.7285C11.5045 19.9405 10.9502 19.9957 10.5762 19.9854L10.5771 19.9863C10.0127 20.0392 9.54815 19.9395 9.17578 19.7246L9.02246 19.626C8.67758 19.3799 8.44804 19.0428 8.29688 18.6943L8.2373 18.5449C7.94525 17.7566 7.9871 16.8816 8.0293 16.5801L8.04102 16.4424L8.05859 16.2363C8.08387 16.0052 8.14414 15.7083 8.3291 15.4248L8.46191 15.2471C8.80946 14.8396 9.42166 14.486 10.4727 14.209L10.7129 14.1562ZM11.7188 14.9805C11.522 14.8499 11.2434 14.7761 10.832 14.8506L10.6475 14.8916C9.65316 15.1537 9.20197 15.4583 8.9873 15.71L8.9082 15.8135C8.80687 15.9688 8.77411 16.1075 8.75684 16.2617L8.74219 16.4229L8.71777 16.6797C8.68453 16.9172 8.6521 17.6597 8.8877 18.2959L8.98535 18.5205C9.09405 18.7348 9.23679 18.9168 9.42188 19.0488L9.51758 19.1104C9.753 19.2466 10.0752 19.3268 10.5264 19.2822L10.5732 19.2812L10.8271 19.2773C11.1038 19.2613 11.4363 19.2038 11.7266 19.0791L11.8643 19.0137C12.1682 18.8509 12.3652 18.6179 12.4014 18.2852L12.4268 18.0146C12.4714 17.4441 12.4743 16.7182 12.3369 16.0967L12.2559 15.7959C12.148 15.4617 11.9979 15.2078 11.8047 15.0449L11.7188 14.9805Z" fill="#54555D" stroke="#54555D" stroke-width="0.2" stroke-linecap="round" stroke-linejoin="round"/>
<path d="M9.33008 16.0685C9.45633 15.9841 9.62297 15.994 9.74121 16.0939C9.74357 16.0952 9.74565 16.0955 9.74609 16.0958C9.74863 16.0975 9.75059 16.0994 9.75098 16.0997C9.75224 16.1007 9.7541 16.1021 9.75488 16.1027L9.78223 16.1222L9.89551 16.1993L10.0049 16.2716L10.2354 16.4249L10.5918 16.6769L10.6807 16.7511C10.7256 16.7278 10.7804 16.7004 10.8408 16.6642L11.1787 16.4454C11.2908 16.3692 11.3976 16.294 11.4824 16.2316L11.543 16.1954C11.6911 16.1273 11.8708 16.173 11.9688 16.3116C12.0658 16.4492 12.0514 16.6343 11.9424 16.755L11.8906 16.8029C11.8013 16.8686 11.6875 16.9489 11.5664 17.0314L11.1943 17.2706C11.1538 17.2949 11.112 17.3174 11.0713 17.34L11.0723 17.3536C11.0707 17.3857 11.0644 17.4245 11.0605 17.4493V17.4503L11.0469 17.5382L10.9941 17.8712C10.9685 18.038 10.8303 18.1612 10.668 18.1691L10.5967 18.1652C10.4057 18.1345 10.2785 17.953 10.3076 17.7628L10.3584 17.4396C10.3545 17.429 10.3506 17.4191 10.3477 17.4093C10.323 17.3877 10.3003 17.3622 10.2803 17.3312L10.2676 17.3185L10.1729 17.2394L9.85156 17.0128L9.62891 16.8644H9.62793V16.8634L9.51465 16.7892L9.38574 16.7013L9.27344 16.6105C9.13946 16.4724 9.1402 16.2503 9.27539 16.1134L9.33008 16.0685ZM10.9355 17.5997V17.6007C10.937 17.6001 10.9385 17.6002 10.9395 17.5997C10.9458 17.5966 10.9504 17.5931 10.9521 17.5919C10.9543 17.5904 10.9561 17.5888 10.957 17.588C10.9601 17.5856 10.9627 17.5833 10.9629 17.5831L10.9658 17.5802L10.9355 17.5997ZM9.76562 16.1124L9.77637 16.129C9.77578 16.128 9.77571 16.1266 9.77539 16.1261C9.77169 16.1203 9.76828 16.1162 9.76758 16.1154L9.76562 16.1124Z" fill="#54555D" stroke="#54555D" stroke-width="0.2" stroke-linecap="round" stroke-linejoin="round"/>
<path d="M9.4945 17.2765C9.67033 17.2609 9.82192 17.3929 9.8371 17.5674C9.83281 17.5188 9.81534 17.618 10.0767 17.6979L10.1849 17.7254C10.4617 17.7827 10.918 17.7901 11.6335 17.6445L11.6977 17.6388C11.8462 17.6394 11.9767 17.7466 12.0062 17.8974L12.0116 17.9607C12.0111 18.0879 11.9364 18.2051 11.8194 18.2554L11.7573 18.2747C10.9992 18.4288 10.448 18.4354 10.0537 18.3529L9.89434 18.3123C9.499 18.1917 9.23395 17.9392 9.20682 17.6239C9.19196 17.4493 9.31857 17.2923 9.4945 17.2765Z" fill="#54555D" stroke="#54555D" stroke-width="0.2" stroke-linecap="round" stroke-linejoin="round"/>
<path d="M12.3624 7.74478C12.5104 7.67804 12.689 7.72423 12.7864 7.86371L12.821 7.92607C12.8766 8.05448 12.8521 8.20508 12.758 8.30767L12.706 8.35429C12.479 8.51919 12.2854 8.78718 12.1314 9.14399L12.0675 9.30237C11.9058 9.73579 11.8063 10.2538 11.7616 10.7922L11.7384 11.1994C11.7072 12.1454 11.8369 13.0437 12.0314 13.5289L12.0513 13.597C12.0769 13.7345 12.0198 13.8761 11.905 13.9545L11.8431 13.9878C11.6867 14.0531 11.5115 13.9939 11.4217 13.8574L11.3882 13.7942C11.1449 13.1876 11.0106 12.1808 11.0448 11.166L11.0698 10.7324C11.1181 10.1503 11.2266 9.56412 11.4175 9.0523L11.4937 8.86316C11.6803 8.42966 11.941 8.04177 12.3011 7.78015L12.3624 7.74478Z" fill="#54555D" stroke="#54555D" stroke-width="0.2" stroke-linecap="round" stroke-linejoin="round"/>
<path d="M12.9245 20.8026L12.8352 20.8458C12.6433 20.9591 12.5603 21.1537 12.54 21.3345L12.5344 21.4773C12.5371 21.574 12.5512 21.6731 12.571 21.7697L12.6045 21.9123C12.6373 22.0393 12.681 22.1788 12.7304 22.3241L12.8891 22.7701C12.9001 22.8004 12.9118 22.8303 12.9227 22.8605L12.4364 23.0382C12.3587 23.05 12.2938 23.0851 12.2466 23.1285L12.1905 23.194C12.1454 23.2605 12.132 23.3252 12.1278 23.3454L12.1159 23.4646C12.1154 23.5035 12.1174 23.5401 12.1201 23.571L12.1342 23.6811C12.1465 23.7581 12.1646 23.8423 12.1894 23.9279L12.2319 24.0574C12.2778 24.1834 12.344 24.3258 12.4381 24.452L12.5415 24.572C12.6926 24.7209 12.9097 24.8274 13.1723 24.7865C13.1867 24.7989 13.2043 24.8158 13.2254 24.8392L13.3254 24.9619L13.4467 25.1249C13.5498 25.2658 13.6758 25.4385 13.8258 25.615L13.9843 25.7921C14.5605 26.4039 15.4475 26.9865 16.945 26.9398L17.2524 26.922C17.4455 26.9057 17.5867 26.7329 17.5711 26.5402C17.5553 26.348 17.3888 26.2024 17.1963 26.2187L16.9325 26.2341C15.6485 26.2762 14.9438 25.7885 14.4869 25.3034L14.3528 25.1546C14.2264 25.0061 14.1203 24.861 14.0191 24.7229L13.8744 24.5275L13.7386 24.362C13.6897 24.3078 13.6365 24.2567 13.5806 24.2138L13.4817 24.149C13.3726 24.0895 13.2349 24.0522 13.0766 24.0896C13.0658 24.0922 13.0622 24.0909 13.0607 24.0904C13.0574 24.0893 13.0461 24.0846 13.0258 24.0646L12.9903 24.0228C12.954 23.9733 12.9167 23.9014 12.8839 23.8112L12.8429 23.6794C12.8396 23.6665 12.838 23.6535 12.8352 23.6411L13.4829 23.407C13.5946 23.3664 13.6727 23.2743 13.7017 23.1673C13.7298 23.1995 13.7635 23.2267 13.802 23.2469C13.8649 23.2797 13.9361 23.2921 14.0055 23.2829L14.0739 23.2666L14.7239 23.038C14.7659 23.1834 14.7735 23.2854 14.7671 23.3549L14.7553 23.422C14.7389 23.482 14.7088 23.5246 14.6721 23.5622L14.6078 23.6186C14.5858 23.6357 14.5624 23.652 14.5346 23.6711L14.4315 23.7458L14.3444 23.8207C14.3104 23.8553 14.2745 23.8997 14.2476 23.9541L14.2112 24.0581C14.2028 24.096 14.1982 24.1368 14.2009 24.1799L14.2098 24.2411C14.2137 24.2602 14.2185 24.2785 14.2243 24.2958L14.2677 24.3899C14.2943 24.4346 14.328 24.4771 14.3656 24.5162L14.485 24.6223C14.5293 24.6563 14.5796 24.6898 14.6347 24.7213L14.8138 24.8082C15.042 24.8998 15.3341 24.9494 15.6597 24.8813L15.8006 24.8449C16.5157 24.6241 17.2451 23.8602 17.8547 22.1369L17.9746 21.7792C18.0335 21.5952 17.9356 21.3967 17.7534 21.3359L17.6847 21.3201C17.5233 21.3013 17.3662 21.4005 17.3143 21.5627L17.1983 21.9064C16.6164 23.5489 15.9972 24.0472 15.6007 24.1697L15.4478 24.202C15.3018 24.2188 15.1739 24.1933 15.0709 24.152L15.065 24.1484L15.1647 24.0584C15.2884 23.9318 15.3997 23.759 15.4437 23.5245L15.4579 23.4197C15.4836 23.1427 15.4157 22.823 15.244 22.4458L15.2111 22.3893C15.124 22.2654 14.9649 22.2093 14.8163 22.2613L14.1919 22.4788C14.1912 22.4767 14.19 22.4745 14.1894 22.4724L14.031 21.9399C13.9776 21.769 13.9232 21.6083 13.8666 21.4691L13.8073 21.3316C13.7434 21.1948 13.666 21.0621 13.5685 20.9608L13.5126 20.9088C13.4525 20.8575 13.3787 20.8116 13.2901 20.785L13.1976 20.7658C13.1043 20.7548 13.0117 20.7684 12.9245 20.8026Z" fill="#54555D" stroke="#54555D" stroke-width="0.2" stroke-linecap="round" stroke-linejoin="round"/>
<path d="M10.5875 21.6097L10.6514 21.6876C10.782 21.873 10.7825 22.0876 10.733 22.2651L10.6839 22.4027C10.6445 22.4939 10.594 22.5829 10.5384 22.6672L10.4525 22.7893C10.3736 22.8966 10.2802 23.0109 10.1804 23.1265L9.86995 23.4748C9.84726 23.5 9.82447 23.5249 9.80203 23.5499C9.85957 23.6087 9.9171 23.6684 9.97184 23.7201L10.0982 23.8294C10.1209 23.8341 10.1447 23.8416 10.1689 23.8523L10.2282 23.8849C10.2823 23.9222 10.3209 23.9719 10.3463 24.0219L10.3765 24.1022C10.3958 24.1795 10.3868 24.2444 10.3835 24.2667L10.3534 24.3832C10.3403 24.4195 10.3246 24.4522 10.3115 24.4791L10.2609 24.5738C10.2228 24.6387 10.1763 24.7071 10.1236 24.7745L10.0399 24.8743C9.95376 24.9699 9.84267 25.0732 9.7104 25.1502L9.57094 25.2174C9.39774 25.2841 9.19418 25.2972 8.99508 25.205L8.90449 25.3011L8.78921 25.4419C8.6796 25.5772 8.54214 25.7465 8.37992 25.9139L8.20942 26.0802C7.93281 26.3309 7.58089 26.5657 7.1315 26.6822L6.93288 26.7253C6.45462 26.8058 5.90334 26.7474 5.26359 26.4919L4.98364 26.3703C4.831 26.2983 4.75469 26.128 4.79142 25.9682L4.81412 25.9004C4.89395 25.7242 5.09958 25.6462 5.27385 25.7282L5.51409 25.8335C6.05997 26.0518 6.48526 26.0836 6.81874 26.0275L6.9578 25.9972C7.27354 25.9156 7.52939 25.7492 7.74809 25.551L7.88687 25.4173C8.01809 25.2822 8.13035 25.1438 8.23833 25.0107L8.37996 24.8383L8.52181 24.6828C8.57441 24.6311 8.63187 24.5823 8.69315 24.5448L8.80959 24.4887C8.85394 24.4731 8.9037 24.4625 8.95802 24.4602L9.04277 24.4643C9.12526 24.4755 9.20086 24.5075 9.26638 24.5542C9.2785 24.5628 9.28459 24.5642 9.28767 24.5646C9.29183 24.565 9.30281 24.5651 9.32513 24.5565L9.41795 24.5004C9.45261 24.4737 9.49087 24.4388 9.5299 24.3955L9.58957 24.317L9.50211 24.239C9.42704 24.1681 9.34731 24.0879 9.27268 24.0107L9.07327 23.7989C9.00154 23.7201 8.97211 23.6164 8.98359 23.5167C8.96305 23.5274 8.94183 23.5367 8.9195 23.543L8.84868 23.5549C8.77609 23.5594 8.70429 23.5408 8.64347 23.5021L8.58604 23.4563L8.15026 23.0437C8.13023 23.0256 8.11047 23.0088 8.09186 22.9924C8.0039 23.1042 7.96464 23.1892 7.94845 23.2487L7.93801 23.3072C7.93338 23.362 7.94579 23.409 7.96751 23.4578L8.00827 23.5348C8.02307 23.5589 8.03933 23.5835 8.0587 23.6115L8.12795 23.7161L8.18308 23.8153C8.20271 23.8591 8.22071 23.9125 8.22751 23.9717L8.22601 24.0846C8.22063 24.1238 8.21038 24.1647 8.19189 24.2054L8.16138 24.2603C8.15024 24.2776 8.13861 24.2938 8.12615 24.3084L8.04917 24.3794C8.01686 24.4034 7.97989 24.4224 7.94558 24.4374L7.85639 24.471L7.63927 24.5272C7.51686 24.5526 7.36857 24.5742 7.20797 24.5818L7.0439 24.5848C6.64607 24.5789 6.10266 24.4729 5.77821 24.0157L5.71685 23.9203C5.60074 23.7208 5.52564 23.4853 5.47037 23.2517L5.42085 23.0198L5.34634 22.5961L5.33829 22.5508L5.25902 22.1081C5.21401 21.8918 5.16322 21.7168 5.10123 21.5831L5.03547 21.4631C4.99374 21.4001 4.95027 21.3555 4.90131 21.3255C4.87691 21.3105 4.84941 21.2982 4.81848 21.2892L4.71353 21.2731C4.54592 21.2643 4.41222 21.1351 4.38795 20.9726L4.38494 20.9009C4.39473 20.7066 4.55664 20.5561 4.74774 20.566L4.89026 20.5825C5.21148 20.6384 5.44631 20.8225 5.60926 21.0688L5.67081 21.169C5.80483 21.4109 5.88131 21.6965 5.93677 21.963L6.02172 22.4337L6.02976 22.479L6.10032 22.8843L6.14489 23.0923C6.19137 23.2873 6.24501 23.4435 6.31258 23.5597L6.36546 23.6345C6.50382 23.7956 6.74598 23.8734 7.05313 23.8779L7.29279 23.8665C7.32604 23.863 7.35775 23.8555 7.38864 23.8509L7.33676 23.7503C7.26586 23.5914 7.21925 23.3923 7.25852 23.1609L7.2802 23.06C7.35155 22.7962 7.5273 22.5344 7.81476 22.2648L7.86596 22.2246C7.92032 22.1902 7.9839 22.1716 8.04892 22.1716L8.14933 22.1856C8.17658 22.1933 8.19628 22.2024 8.20586 22.2067L8.27499 22.244L8.37994 22.3189L8.60837 22.5141L8.78871 22.6811C8.80269 22.6628 8.817 22.6444 8.83104 22.6261L9.13911 22.2294C9.24131 22.1015 9.34167 21.981 9.43723 21.8784L9.54417 21.7687C9.65547 21.6606 9.77871 21.5609 9.90899 21.5L9.98147 21.4702C10.0583 21.4434 10.1474 21.4275 10.2438 21.4378L10.3425 21.4578C10.4367 21.4862 10.5196 21.5393 10.5875 21.6097ZM9.04567 25.1535L9.04242 25.1548C9.03987 25.1558 9.03693 25.1554 9.03434 25.1562L9.03593 25.1573C9.03873 25.1564 9.04147 25.1557 9.04187 25.1556C9.04329 25.155 9.04472 25.1545 9.04512 25.1543L9.04701 25.1533L9.04677 25.1519L9.04567 25.1535Z" fill="#54555D" stroke="#54555D" stroke-width="0.2" stroke-linecap="round" stroke-linejoin="round"/>
<path d="M14.335 8.59082C14.5276 8.57683 14.7218 8.67508 14.8584 8.77832L14.9678 8.87109C15.0746 8.97418 15.1702 9.106 15.2266 9.25781L15.2529 9.33887C15.2964 9.50619 15.2882 9.69277 15.1963 9.87207L15.1436 9.96094C14.9496 10.2438 14.5771 10.4061 14.2119 10.4443L14.0566 10.4531C13.6566 10.4562 13.203 10.306 12.9355 9.88965L12.8848 9.80273C12.7692 9.58638 12.7575 9.3563 12.876 9.1543L12.918 9.09082C13.0234 8.95096 13.1768 8.85989 13.3154 8.79883L13.4404 8.75C13.7388 8.64491 14.089 8.60238 14.335 8.5918V8.59082ZM14.3652 9.16895C14.1758 9.17668 13.9366 9.20661 13.7324 9.26367L13.543 9.33008C13.4845 9.35585 13.4438 9.38052 13.416 9.40137L13.3672 9.4502C13.3643 9.45504 13.3642 9.45671 13.3643 9.46094C13.3644 9.46795 13.367 9.48766 13.3877 9.52637L13.4404 9.61035C13.5772 9.79057 13.8008 9.87594 14.0527 9.87402L14.1611 9.86719C14.2675 9.85559 14.3655 9.82956 14.4482 9.79395C14.5604 9.74565 14.6369 9.68377 14.6738 9.62988L14.6963 9.58887C14.7069 9.56159 14.709 9.53473 14.7041 9.50586L14.6924 9.46094C14.6717 9.40523 14.6299 9.34511 14.5752 9.29199L14.5166 9.24219C14.473 9.20923 14.4353 9.18937 14.4082 9.17871C14.3775 9.1667 14.3677 9.16874 14.377 9.16797L14.3652 9.16895Z" fill="#54555D" stroke="#54555D" stroke-width="0.2" stroke-linecap="round" stroke-linejoin="round"/>
<path d="M7.20996 8.52759C7.01259 8.51319 6.81238 8.61333 6.66992 8.72095L6.55664 8.8186C6.44589 8.92553 6.34638 9.06118 6.28809 9.21802L6.26172 9.30298C6.21699 9.47548 6.22471 9.66716 6.31934 9.85181L6.37402 9.9436C6.57461 10.2361 6.96103 10.4047 7.3418 10.4446L7.50391 10.4543C7.92094 10.4575 8.39149 10.3008 8.66895 9.86841L8.72168 9.77856C8.84098 9.55511 8.85264 9.31939 8.73145 9.11255L8.6875 9.04712C8.57901 8.90332 8.42099 8.80907 8.27637 8.74536L8.14551 8.6936C7.83393 8.58397 7.46756 8.53961 7.20996 8.52856V8.52759ZM7.18066 9.10571C7.38003 9.11388 7.63181 9.14598 7.84766 9.2063L8.04883 9.27563C8.11116 9.30308 8.15514 9.32987 8.18555 9.35278L8.24023 9.40845C8.24414 9.41514 8.24524 9.4194 8.24512 9.427C8.24495 9.43702 8.24154 9.46053 8.21875 9.50317L8.16211 9.59204C8.01509 9.78619 7.77586 9.87729 7.50781 9.87524L7.39258 9.86841C7.27949 9.85611 7.17541 9.82738 7.08691 9.78931C6.96732 9.73784 6.88355 9.67291 6.84277 9.61353L6.81836 9.56665C6.80633 9.53577 6.80332 9.50526 6.80859 9.4729L6.82227 9.42212C6.8449 9.36117 6.89046 9.29659 6.94922 9.2395L7.01172 9.18579C7.05829 9.15061 7.09892 9.12921 7.12891 9.11743C7.16233 9.10431 7.17472 9.1053 7.16797 9.10474L7.18066 9.10571Z" fill="#54555D" stroke="#54555D" stroke-width="0.2" stroke-linecap="round" stroke-linejoin="round"/>
<path d="M8.88379 1.23193C8.97685 1.22599 9.06873 1.28363 9.15625 1.36279C9.53632 1.70676 9.5107 2.15943 9.48242 2.47607C9.47515 2.55751 9.46752 2.62744 9.46484 2.68994C9.46214 2.75317 9.46529 2.79846 9.47363 2.82959C9.48115 2.85753 9.49084 2.8661 9.49902 2.87061C9.51143 2.87727 9.54141 2.88572 9.60645 2.87744L9.70605 2.854C9.81041 2.81931 9.92998 2.75179 10.0625 2.66064C10.2374 2.54035 10.4193 2.39022 10.6064 2.24365C10.7905 2.0995 10.9801 1.9589 11.1592 1.86963C11.3358 1.78162 11.527 1.73114 11.7012 1.80713L11.7627 1.84131C11.8184 1.87992 11.8559 1.93175 11.875 1.99365C11.8988 2.07086 11.8909 2.15331 11.873 2.22607C11.8382 2.36781 11.7522 2.52871 11.7051 2.6333C11.6932 2.65971 11.6872 2.68275 11.6807 2.70068C11.7026 2.69528 11.7309 2.68858 11.7646 2.67627C11.853 2.64402 11.9761 2.58818 12.1445 2.50244C12.8505 2.14306 13.6716 2.14334 14.1836 2.28369C14.3122 2.31897 14.4251 2.36426 14.5137 2.41748C14.5998 2.46924 14.6749 2.53633 14.708 2.62061C14.7452 2.71545 14.7214 2.81041 14.6514 2.88818C14.6025 2.94241 14.5306 2.98927 14.4395 3.03076L14.3418 3.0708C14.215 3.11695 14.1303 3.16262 14.0781 3.20459C14.0264 3.24619 14.0147 3.27743 14.0127 3.29443C14.0109 3.31069 14.0155 3.33713 14.0469 3.37451C14.0786 3.4123 14.1314 3.45411 14.2061 3.49658C14.5081 3.66841 15.076 3.80029 15.5938 3.80029C16.112 3.80029 16.451 3.68891 16.6924 3.64795C16.7515 3.63793 16.8095 3.63139 16.8623 3.63525C16.9165 3.63926 16.9727 3.65479 17.0195 3.69385C17.0661 3.73268 17.0935 3.78612 17.1094 3.84521C17.125 3.9036 17.1309 3.97422 17.1309 4.05518C17.1309 4.19388 17.1604 4.30745 17.1934 4.41162C17.2243 4.50948 17.2668 4.61995 17.2725 4.72314C17.2788 4.8403 17.2404 4.94892 17.1338 5.05615C17.0577 5.13255 16.9459 5.20966 16.79 5.29248L16.6191 5.37744C16.5004 5.43326 16.4407 5.48063 16.416 5.51318C16.4058 5.52676 16.4044 5.53356 16.4043 5.53467C16.4043 5.535 16.404 5.53565 16.4043 5.53662C16.4046 5.53778 16.4064 5.54022 16.4092 5.54443C16.4229 5.56512 16.4619 5.59741 16.5439 5.6333C16.6225 5.66764 16.7272 5.69995 16.8535 5.72803C17.3611 5.84078 18.1636 5.87916 18.835 5.80322C19.0103 5.78342 19.1509 5.78746 19.2559 5.81494C19.3608 5.84247 19.4495 5.89989 19.4795 6.00049C19.5077 6.095 19.4723 6.19231 19.4209 6.27393C19.3676 6.35841 19.2853 6.44544 19.1836 6.52881C18.8037 6.8401 18.0938 7.15534 17.3301 7.16064L17.1768 7.15771C16.3762 7.11887 15.9058 6.98105 15.5498 6.92529C15.3712 6.89733 15.2199 6.88993 15.0615 6.91846C14.9427 6.93991 14.8156 6.9821 14.667 7.05713L14.5107 7.14404C14.019 7.4361 13.3959 7.36823 12.8984 7.15967C12.6479 7.05463 12.4223 6.91116 12.2529 6.75146C12.1067 6.61362 11.9944 6.456 11.9531 6.29346L11.9395 6.22314C11.9369 6.20271 11.9309 6.19335 11.9258 6.18799C11.92 6.18194 11.909 6.17341 11.8857 6.16748C11.8354 6.15471 11.7527 6.15759 11.6377 6.18311C11.4112 6.23333 11.1082 6.35903 10.7979 6.51221C10.4892 6.66456 10.1796 6.84114 9.94336 6.98877C9.82533 7.06254 9.72622 7.12854 9.65527 7.18018C9.61998 7.20587 9.59301 7.22736 9.57422 7.24365C9.56475 7.25188 9.5583 7.25834 9.55469 7.26221L9.55762 7.25635C9.54414 7.28364 9.5234 7.30493 9.50586 7.31982C9.48699 7.33585 9.4642 7.35078 9.44043 7.36475C9.39283 7.39269 9.33162 7.41988 9.2627 7.4458C9.12439 7.4978 8.9447 7.54575 8.75293 7.5708C8.56136 7.59581 8.35287 7.59936 8.16016 7.55908C7.96725 7.51874 7.7834 7.4327 7.65137 7.27588C7.55659 7.16354 7.40407 7.08507 7.21582 7.03857C7.02866 6.99238 6.81521 6.97978 6.61035 6.99365C6.40522 7.00758 6.21391 7.04758 6.07227 7.1001C6.00121 7.12646 5.94564 7.1547 5.9082 7.18213C5.86909 7.21085 5.86068 7.23053 5.85938 7.23584C5.84229 7.30537 5.79635 7.35716 5.72852 7.37842C5.66987 7.39677 5.6062 7.38869 5.55078 7.37354C5.43798 7.34267 5.3022 7.2671 5.16992 7.1792C4.90523 7.00324 4.6166 6.74937 4.47852 6.58643V6.5874C4.35636 6.45649 4.22758 6.30114 4.12793 6.15088C4.0781 6.07572 4.03476 5.99944 4.00293 5.92725C3.97164 5.85626 3.94877 5.78241 3.94727 5.7124C3.94572 5.63955 3.96735 5.5647 4.03125 5.51025C4.09143 5.45902 4.17407 5.43884 4.26562 5.43701C4.44753 5.43343 4.72279 5.50135 5.11719 5.65576L5.43262 5.771C5.52104 5.80047 5.59346 5.82207 5.65234 5.83545C5.70622 5.84767 5.74555 5.85038 5.77246 5.85107C5.77041 5.84586 5.76964 5.8391 5.7666 5.83252C5.74022 5.77538 5.68968 5.6985 5.62305 5.604C5.49471 5.42202 5.31271 5.18338 5.2041 4.9585C5.14948 4.84536 5.10835 4.72571 5.10547 4.61084C5.10269 4.49741 5.13791 4.38953 5.22754 4.30225C5.34614 4.14143 5.55346 3.92283 5.79102 3.79053C5.91052 3.72399 6.0434 3.67563 6.18066 3.67334C6.32071 3.67102 6.45927 3.71685 6.58398 3.82568L6.6123 3.84814C6.61149 3.84066 6.6124 3.83225 6.61133 3.82373C6.60361 3.76239 6.59237 3.69205 6.58008 3.60693C6.55632 3.44242 6.53339 3.23816 6.55762 3.04346C6.58208 2.84751 6.65605 2.64957 6.83594 2.51221L6.95605 2.42627C7.24047 2.23744 7.55276 2.12589 7.84766 2.1167C8.16356 2.10695 8.45907 2.21683 8.66895 2.47314C8.66808 2.34818 8.6575 2.17502 8.64941 1.98975C8.64465 1.88066 8.64187 1.76962 8.64648 1.66943C8.65103 1.57123 8.66259 1.47449 8.69043 1.39893C8.71774 1.32503 8.77464 1.23892 8.88379 1.23193Z" fill="black" stroke="#54555D" stroke-width="0.2" stroke-linecap="round" stroke-linejoin="round"/>
<mask id="path-15-outside-1_163_494" maskUnits="userSpaceOnUse" x="2.72266" y="0" width="18" height="9" fill="black">
<rect fill="white" x="2.72266" width="18" height="9"/>
<path fill-rule="evenodd" clip-rule="evenodd" d="M8.49944 2.92473C8.44403 2.88163 8.40177 2.82699 8.37229 2.78497C8.25632 2.61967 8.08386 2.54108 7.86149 2.54794C7.63006 2.55508 7.35266 2.65791 7.09139 2.85742C7.03443 2.90091 6.99493 2.97135 6.97917 3.09807C6.96273 3.23017 6.97755 3.38397 7.00073 3.54447C7.00436 3.56961 7.00856 3.5972 7.01282 3.62526C7.02048 3.6756 7.02836 3.72743 7.03362 3.76927C7.04062 3.82494 7.05315 3.92814 7.03427 4.02252C7.0244 4.07185 6.9952 4.17646 6.8962 4.2541C6.78462 4.34161 6.66178 4.33678 6.58741 4.31883C6.519 4.30232 6.46326 4.26962 6.42687 4.24553C6.38679 4.21901 6.34677 4.18696 6.30767 4.15284C6.2421 4.09562 6.15861 4.07792 5.99547 4.16878C5.82836 4.26184 5.66473 4.43106 5.5682 4.56209C5.55693 4.57739 5.54439 4.59166 5.53072 4.60474C5.53253 4.63119 5.54498 4.68397 5.58576 4.76845C5.65756 4.91715 5.76974 5.07379 5.88737 5.23805C5.91453 5.27597 5.94197 5.31429 5.96928 5.35302C6.03366 5.44432 6.10667 5.55135 6.15198 5.64962C6.17384 5.69703 6.20386 5.77245 6.2082 5.86053C6.21329 5.96375 6.18127 6.10074 6.05916 6.19622C5.95927 6.27432 5.84718 6.28434 5.78277 6.2847C5.7106 6.2851 5.63469 6.273 5.56077 6.25623C5.41166 6.2224 5.21535 6.15638 4.96542 6.05851C4.77686 5.98467 4.62677 5.93572 4.50925 5.90586C4.49645 5.90261 4.48416 5.89961 4.47238 5.89687C4.47511 5.90106 4.47789 5.90529 4.48072 5.90957C4.56336 6.0342 4.67582 6.17054 4.78749 6.29022C4.79136 6.29437 4.79511 6.29861 4.79876 6.30295C4.90374 6.42779 5.16206 6.6582 5.40332 6.81854C5.46712 6.86093 5.52177 6.89299 5.56596 6.91581C5.59829 6.88077 5.63184 6.85307 5.66063 6.83198C5.74041 6.77353 5.83414 6.7289 5.92683 6.69452C6.11376 6.62518 6.34576 6.57948 6.58224 6.56343C6.81922 6.54734 7.07795 6.55984 7.31711 6.61892C7.55222 6.67699 7.80037 6.78824 7.9751 6.99577C8.02748 7.05799 8.1139 7.10839 8.24653 7.13611C8.37951 7.1639 8.53778 7.16394 8.69914 7.14288C8.85937 7.12196 9.00804 7.08217 9.11612 7.04153C9.16475 7.02324 9.19964 7.00684 9.22115 6.99497C9.23212 6.98099 9.2416 6.97071 9.24725 6.96468C9.2645 6.94624 9.28251 6.9297 9.29829 6.91599C9.33014 6.88832 9.36838 6.85886 9.40883 6.82942C9.49068 6.76985 9.5986 6.69807 9.72175 6.6211C9.96851 6.46688 10.2899 6.28343 10.6126 6.12413C10.9298 5.96756 11.27 5.82333 11.5477 5.76175C11.6807 5.73224 11.8414 5.71155 11.9889 5.74892C12.068 5.76898 12.1577 5.80947 12.2325 5.88826C12.3098 5.96976 12.3497 6.06982 12.362 6.16966C12.3671 6.2116 12.4078 6.30837 12.5425 6.43531C12.6696 6.55521 12.8505 6.67248 13.0612 6.7608C13.4942 6.94234 13.9645 6.9685 14.2965 6.77129C14.546 6.62312 14.7667 6.53306 14.9884 6.49314C15.2106 6.45312 15.4127 6.46744 15.6152 6.49915C15.7299 6.51713 15.844 6.53997 15.9659 6.56437C16.2784 6.62695 16.6418 6.69973 17.1979 6.72669C17.871 6.75933 18.5175 6.49319 18.8641 6.23447C18.1575 6.31213 17.3183 6.27307 16.7637 6.14989C16.6225 6.11854 16.4891 6.07945 16.3765 6.03026C16.2762 5.98638 16.1408 5.91308 16.0563 5.78482C16.0083 5.71202 15.974 5.61679 15.981 5.50694C15.9878 5.40007 16.0316 5.31311 16.0801 5.2492C16.1692 5.13188 16.3064 5.04927 16.4417 4.98569C16.6794 4.87398 16.7883 4.79706 16.8354 4.74975C16.8409 4.74422 16.8449 4.73972 16.8477 4.73627C16.845 4.71637 16.837 4.69186 16.8183 4.63404C16.8107 4.61035 16.8012 4.58107 16.7896 4.54423C16.753 4.42882 16.7108 4.27547 16.7068 4.08475C16.6794 4.09045 16.6485 4.09728 16.6142 4.10485C16.3942 4.15353 16.0378 4.23237 15.5943 4.23237C15.0281 4.23237 14.383 4.09115 13.9992 3.87286C13.9011 3.81701 13.801 3.74563 13.7242 3.65404C13.6463 3.56114 13.5715 3.42036 13.5912 3.24569C13.6106 3.07376 13.7128 2.94922 13.8154 2.86669C13.8931 2.80413 13.9877 2.75158 14.0938 2.7062C14.087 2.70424 14.0801 2.70229 14.0731 2.70036C13.6465 2.58344 12.9355 2.58339 12.3359 2.88863C12.1615 2.97742 12.0204 3.04197 11.9082 3.08284C11.8521 3.10329 11.7963 3.12041 11.7426 3.13083C11.6927 3.1405 11.622 3.1491 11.5458 3.13384C11.4598 3.1166 11.3563 3.06527 11.2916 2.95285C11.2346 2.85388 11.2363 2.7556 11.2419 2.70266C11.2523 2.60342 11.2953 2.50633 11.3192 2.45343C11.3396 2.40812 11.3584 2.36833 11.3755 2.33242C11.3949 2.29152 11.4119 2.25564 11.4261 2.22234C11.4032 2.2307 11.3768 2.24201 11.3467 2.257C11.2104 2.32491 11.0518 2.44043 10.8666 2.58546C10.8264 2.6169 10.7849 2.64988 10.7423 2.68362C10.5999 2.79663 10.4468 2.91811 10.3009 3.01847C10.117 3.14489 9.89237 3.2763 9.65971 3.30591C9.55282 3.31951 9.4202 3.31778 9.29695 3.25C9.16002 3.17469 9.09304 3.05127 9.06399 2.94284C9.05147 2.8961 9.04497 2.84891 9.04195 2.80426C9.01438 2.85922 8.9651 2.92712 8.87811 2.97015C8.69761 3.05944 8.54581 2.9608 8.49944 2.92473ZM8.82861 1.64913C8.82859 1.64905 8.82964 1.64955 8.83178 1.65087C8.82969 1.64988 8.82862 1.64922 8.82861 1.64913ZM11.4658 2.09559C11.4658 2.09559 11.4658 2.09571 11.4658 2.09597C11.4658 2.09572 11.4658 2.09559 11.4658 2.09559ZM14.3337 2.81439C14.3336 2.81439 14.3335 2.81426 14.3333 2.81401C14.3335 2.81426 14.3337 2.81439 14.3337 2.81439ZM16.6995 3.95826C16.6995 3.95825 16.6996 3.95857 16.6998 3.95925C16.6996 3.95861 16.6995 3.95827 16.6995 3.95826ZM16.854 4.72774C16.854 4.72775 16.8539 4.72788 16.8538 4.72813C16.8539 4.72787 16.854 4.72774 16.854 4.72774ZM19.0729 6.02489C19.073 6.02487 19.0725 6.0263 19.071 6.02927C19.072 6.0264 19.0728 6.0249 19.0729 6.02489ZM5.67138 6.95867C5.67143 6.95875 5.67023 6.95861 5.66767 6.95804C5.67005 6.95831 5.67133 6.9586 5.67138 6.95867ZM4.25199 5.87054C4.25197 5.87051 4.25262 5.87034 4.25406 5.87012C4.25274 5.87045 4.25202 5.87056 4.25199 5.87054ZM8.87039 1.00088C9.05921 0.988798 9.21145 1.10364 9.30557 1.18881C9.77763 1.61602 9.73481 2.18138 9.70663 2.49688C9.70488 2.51656 9.70319 2.5349 9.70161 2.55214C9.69968 2.57308 9.6979 2.59241 9.69633 2.61053C9.75974 2.58195 9.83957 2.53612 9.93793 2.46847C10.0638 2.3819 10.1922 2.28009 10.3306 2.17028C10.3763 2.13407 10.4231 2.09699 10.4712 2.05929C10.6547 1.91556 10.86 1.76158 11.0617 1.66106C11.2556 1.56445 11.5234 1.47799 11.7892 1.59397C11.9327 1.65658 12.0427 1.76929 12.0903 1.92404C12.1306 2.05484 12.115 2.18076 12.0939 2.27135C12.8443 1.90744 13.6966 1.91051 14.2415 2.05989C14.3832 2.09871 14.5165 2.15065 14.6276 2.21739C14.7299 2.27887 14.8565 2.37867 14.9173 2.53341C14.9504 2.61769 14.9617 2.71382 14.9397 2.81242C14.9184 2.9083 14.8703 2.98604 14.8165 3.04582C14.7148 3.15867 14.5691 3.23413 14.4176 3.28923C14.3939 3.29782 14.3727 3.30615 14.3536 3.31415C14.6239 3.45271 15.1248 3.56921 15.5943 3.56921C15.9591 3.56921 16.2154 3.51298 16.4345 3.4649C16.5122 3.44787 16.5851 3.43186 16.6566 3.41974C16.7212 3.40879 16.7998 3.39884 16.8792 3.40471C16.9625 3.41087 17.0672 3.43593 17.161 3.51404C17.3416 3.66448 17.356 3.90305 17.356 4.05488C17.356 4.15824 17.3776 4.24516 17.4077 4.34034C17.4112 4.35154 17.4156 4.36465 17.4205 4.37933C17.4476 4.46041 17.4908 4.5894 17.4974 4.71018C17.5078 4.90108 17.4395 5.07327 17.291 5.22244C17.1932 5.3207 17.0595 5.4104 16.8913 5.49955C16.8948 5.50033 16.8983 5.50111 16.9018 5.50189C17.3824 5.60865 18.1595 5.64697 18.8106 5.57333C18.9978 5.55215 19.169 5.55295 19.3116 5.59029C19.4526 5.62721 19.6318 5.72124 19.6948 5.93274C19.7522 6.12526 19.6749 6.29761 19.61 6.40055C19.5388 6.5133 19.4366 6.61774 19.3238 6.71011C18.8791 7.07453 18.0462 7.43172 17.1671 7.3891C16.5587 7.35961 16.1221 7.27221 15.8033 7.20838C15.6948 7.18668 15.6 7.16769 15.5167 7.15464C15.3504 7.1286 15.2264 7.12368 15.1012 7.14622C14.9755 7.16886 14.8275 7.22318 14.6232 7.34451C14.0477 7.6863 13.3457 7.59696 12.8144 7.37425C12.5429 7.26044 12.2936 7.1034 12.1018 6.92252C11.9519 6.78124 11.8134 6.60257 11.7492 6.3978C11.7313 6.40049 11.7102 6.40434 11.6856 6.40979C11.4858 6.45409 11.2021 6.56973 10.8954 6.72116C10.5941 6.86987 10.2916 7.04254 10.0609 7.18669C9.94534 7.25892 9.85119 7.32189 9.78591 7.3694C9.758 7.38972 9.73827 7.4051 9.72561 7.41565C9.69794 7.45441 9.66831 7.48168 9.64895 7.49812C9.6171 7.52517 9.58324 7.54751 9.55243 7.56561C9.49048 7.60201 9.41725 7.635 9.34065 7.66381C9.18638 7.72182 8.99 7.77347 8.78152 7.80068C8.57419 7.82774 8.34013 7.83259 8.11624 7.78579C7.89198 7.73892 7.65698 7.63531 7.48247 7.42803C7.4303 7.36606 7.32867 7.30406 7.16436 7.26348C7.0041 7.22389 6.81377 7.21233 6.62533 7.22512C6.43639 7.23795 6.26661 7.27406 6.14866 7.31781C6.1044 7.33423 6.07401 7.34931 6.05511 7.36052C6.00821 7.47285 5.91785 7.56156 5.79462 7.60017C5.67691 7.63706 5.56476 7.61657 5.4938 7.59716C5.34562 7.55663 5.18578 7.46524 5.04895 7.37432C4.77229 7.19046 4.46753 6.92473 4.31165 6.74171C4.18539 6.6059 4.05003 6.44304 3.94278 6.28128C3.8884 6.19925 3.83728 6.11159 3.79839 6.02339C3.76126 5.93919 3.72525 5.83234 3.72278 5.71769C3.7201 5.59255 3.75912 5.44218 3.88852 5.33193C4.00448 5.23314 4.14614 5.20796 4.26166 5.20566C4.48982 5.2011 4.79994 5.28344 5.19805 5.43934C5.21227 5.44491 5.22621 5.45033 5.23987 5.4556C5.1544 5.33117 5.06719 5.19434 5.00313 5.06166C4.9424 4.93589 4.88524 4.78109 4.88113 4.61717C4.87689 4.44792 4.93046 4.27565 5.06727 4.13917C5.2002 3.9645 5.42146 3.73304 5.68439 3.58661C5.86385 3.48666 6.09651 3.41183 6.33488 3.454C6.32174 3.31951 6.31586 3.16649 6.33477 3.0145C6.3639 2.78031 6.45676 2.51388 6.70232 2.32637C7.04609 2.06387 7.44936 1.8972 7.84187 1.88509C8.04333 1.87887 8.24307 1.91414 8.42522 1.998C8.42041 1.88713 8.4176 1.76841 8.4227 1.65815C8.42754 1.5535 8.44039 1.42712 8.48136 1.31627C8.52106 1.20884 8.6301 1.01626 8.87039 1.00088ZM6.78351 3.69111C6.78352 3.69115 6.78281 3.69075 6.78135 3.68981C6.78277 3.6906 6.7835 3.69107 6.78351 3.69111ZM5.56754 5.93993C5.5675 5.93991 5.56713 5.93902 5.56658 5.93733C5.56731 5.9391 5.56758 5.93995 5.56754 5.93993ZM6.03321 7.37579C6.03311 7.37577 6.03403 7.37486 6.03626 7.3731C6.03442 7.37492 6.0333 7.3758 6.03321 7.37579ZM14.2085 3.3954C14.2085 3.3954 14.2087 3.39522 14.2091 3.39486C14.2087 3.39522 14.2086 3.3954 14.2085 3.3954ZM11.6176 2.47991C11.6177 2.47988 11.6185 2.47974 11.62 2.47958C11.6184 2.47986 11.6176 2.47995 11.6176 2.47991ZM9.55581 2.64943C9.55582 2.64941 9.55636 2.64942 9.55737 2.64952C9.55629 2.6495 9.55579 2.64945 9.55581 2.64943Z"/>
</mask>
<path fill-rule="evenodd" clip-rule="evenodd" d="M8.49944 2.92473C8.44403 2.88163 8.40177 2.82699 8.37229 2.78497C8.25632 2.61967 8.08386 2.54108 7.86149 2.54794C7.63006 2.55508 7.35266 2.65791 7.09139 2.85742C7.03443 2.90091 6.99493 2.97135 6.97917 3.09807C6.96273 3.23017 6.97755 3.38397 7.00073 3.54447C7.00436 3.56961 7.00856 3.5972 7.01282 3.62526C7.02048 3.6756 7.02836 3.72743 7.03362 3.76927C7.04062 3.82494 7.05315 3.92814 7.03427 4.02252C7.0244 4.07185 6.9952 4.17646 6.8962 4.2541C6.78462 4.34161 6.66178 4.33678 6.58741 4.31883C6.519 4.30232 6.46326 4.26962 6.42687 4.24553C6.38679 4.21901 6.34677 4.18696 6.30767 4.15284C6.2421 4.09562 6.15861 4.07792 5.99547 4.16878C5.82836 4.26184 5.66473 4.43106 5.5682 4.56209C5.55693 4.57739 5.54439 4.59166 5.53072 4.60474C5.53253 4.63119 5.54498 4.68397 5.58576 4.76845C5.65756 4.91715 5.76974 5.07379 5.88737 5.23805C5.91453 5.27597 5.94197 5.31429 5.96928 5.35302C6.03366 5.44432 6.10667 5.55135 6.15198 5.64962C6.17384 5.69703 6.20386 5.77245 6.2082 5.86053C6.21329 5.96375 6.18127 6.10074 6.05916 6.19622C5.95927 6.27432 5.84718 6.28434 5.78277 6.2847C5.7106 6.2851 5.63469 6.273 5.56077 6.25623C5.41166 6.2224 5.21535 6.15638 4.96542 6.05851C4.77686 5.98467 4.62677 5.93572 4.50925 5.90586C4.49645 5.90261 4.48416 5.89961 4.47238 5.89687C4.47511 5.90106 4.47789 5.90529 4.48072 5.90957C4.56336 6.0342 4.67582 6.17054 4.78749 6.29022C4.79136 6.29437 4.79511 6.29861 4.79876 6.30295C4.90374 6.42779 5.16206 6.6582 5.40332 6.81854C5.46712 6.86093 5.52177 6.89299 5.56596 6.91581C5.59829 6.88077 5.63184 6.85307 5.66063 6.83198C5.74041 6.77353 5.83414 6.7289 5.92683 6.69452C6.11376 6.62518 6.34576 6.57948 6.58224 6.56343C6.81922 6.54734 7.07795 6.55984 7.31711 6.61892C7.55222 6.67699 7.80037 6.78824 7.9751 6.99577C8.02748 7.05799 8.1139 7.10839 8.24653 7.13611C8.37951 7.1639 8.53778 7.16394 8.69914 7.14288C8.85937 7.12196 9.00804 7.08217 9.11612 7.04153C9.16475 7.02324 9.19964 7.00684 9.22115 6.99497C9.23212 6.98099 9.2416 6.97071 9.24725 6.96468C9.2645 6.94624 9.28251 6.9297 9.29829 6.91599C9.33014 6.88832 9.36838 6.85886 9.40883 6.82942C9.49068 6.76985 9.5986 6.69807 9.72175 6.6211C9.96851 6.46688 10.2899 6.28343 10.6126 6.12413C10.9298 5.96756 11.27 5.82333 11.5477 5.76175C11.6807 5.73224 11.8414 5.71155 11.9889 5.74892C12.068 5.76898 12.1577 5.80947 12.2325 5.88826C12.3098 5.96976 12.3497 6.06982 12.362 6.16966C12.3671 6.2116 12.4078 6.30837 12.5425 6.43531C12.6696 6.55521 12.8505 6.67248 13.0612 6.7608C13.4942 6.94234 13.9645 6.9685 14.2965 6.77129C14.546 6.62312 14.7667 6.53306 14.9884 6.49314C15.2106 6.45312 15.4127 6.46744 15.6152 6.49915C15.7299 6.51713 15.844 6.53997 15.9659 6.56437C16.2784 6.62695 16.6418 6.69973 17.1979 6.72669C17.871 6.75933 18.5175 6.49319 18.8641 6.23447C18.1575 6.31213 17.3183 6.27307 16.7637 6.14989C16.6225 6.11854 16.4891 6.07945 16.3765 6.03026C16.2762 5.98638 16.1408 5.91308 16.0563 5.78482C16.0083 5.71202 15.974 5.61679 15.981 5.50694C15.9878 5.40007 16.0316 5.31311 16.0801 5.2492C16.1692 5.13188 16.3064 5.04927 16.4417 4.98569C16.6794 4.87398 16.7883 4.79706 16.8354 4.74975C16.8409 4.74422 16.8449 4.73972 16.8477 4.73627C16.845 4.71637 16.837 4.69186 16.8183 4.63404C16.8107 4.61035 16.8012 4.58107 16.7896 4.54423C16.753 4.42882 16.7108 4.27547 16.7068 4.08475C16.6794 4.09045 16.6485 4.09728 16.6142 4.10485C16.3942 4.15353 16.0378 4.23237 15.5943 4.23237C15.0281 4.23237 14.383 4.09115 13.9992 3.87286C13.9011 3.81701 13.801 3.74563 13.7242 3.65404C13.6463 3.56114 13.5715 3.42036 13.5912 3.24569C13.6106 3.07376 13.7128 2.94922 13.8154 2.86669C13.8931 2.80413 13.9877 2.75158 14.0938 2.7062C14.087 2.70424 14.0801 2.70229 14.0731 2.70036C13.6465 2.58344 12.9355 2.58339 12.3359 2.88863C12.1615 2.97742 12.0204 3.04197 11.9082 3.08284C11.8521 3.10329 11.7963 3.12041 11.7426 3.13083C11.6927 3.1405 11.622 3.1491 11.5458 3.13384C11.4598 3.1166 11.3563 3.06527 11.2916 2.95285C11.2346 2.85388 11.2363 2.7556 11.2419 2.70266C11.2523 2.60342 11.2953 2.50633 11.3192 2.45343C11.3396 2.40812 11.3584 2.36833 11.3755 2.33242C11.3949 2.29152 11.4119 2.25564 11.4261 2.22234C11.4032 2.2307 11.3768 2.24201 11.3467 2.257C11.2104 2.32491 11.0518 2.44043 10.8666 2.58546C10.8264 2.6169 10.7849 2.64988 10.7423 2.68362C10.5999 2.79663 10.4468 2.91811 10.3009 3.01847C10.117 3.14489 9.89237 3.2763 9.65971 3.30591C9.55282 3.31951 9.4202 3.31778 9.29695 3.25C9.16002 3.17469 9.09304 3.05127 9.06399 2.94284C9.05147 2.8961 9.04497 2.84891 9.04195 2.80426C9.01438 2.85922 8.9651 2.92712 8.87811 2.97015C8.69761 3.05944 8.54581 2.9608 8.49944 2.92473ZM8.82861 1.64913C8.82859 1.64905 8.82964 1.64955 8.83178 1.65087C8.82969 1.64988 8.82862 1.64922 8.82861 1.64913ZM11.4658 2.09559C11.4658 2.09559 11.4658 2.09571 11.4658 2.09597C11.4658 2.09572 11.4658 2.09559 11.4658 2.09559ZM14.3337 2.81439C14.3336 2.81439 14.3335 2.81426 14.3333 2.81401C14.3335 2.81426 14.3337 2.81439 14.3337 2.81439ZM16.6995 3.95826C16.6995 3.95825 16.6996 3.95857 16.6998 3.95925C16.6996 3.95861 16.6995 3.95827 16.6995 3.95826ZM16.854 4.72774C16.854 4.72775 16.8539 4.72788 16.8538 4.72813C16.8539 4.72787 16.854 4.72774 16.854 4.72774ZM19.0729 6.02489C19.073 6.02487 19.0725 6.0263 19.071 6.02927C19.072 6.0264 19.0728 6.0249 19.0729 6.02489ZM5.67138 6.95867C5.67143 6.95875 5.67023 6.95861 5.66767 6.95804C5.67005 6.95831 5.67133 6.9586 5.67138 6.95867ZM4.25199 5.87054C4.25197 5.87051 4.25262 5.87034 4.25406 5.87012C4.25274 5.87045 4.25202 5.87056 4.25199 5.87054ZM8.87039 1.00088C9.05921 0.988798 9.21145 1.10364 9.30557 1.18881C9.77763 1.61602 9.73481 2.18138 9.70663 2.49688C9.70488 2.51656 9.70319 2.5349 9.70161 2.55214C9.69968 2.57308 9.6979 2.59241 9.69633 2.61053C9.75974 2.58195 9.83957 2.53612 9.93793 2.46847C10.0638 2.3819 10.1922 2.28009 10.3306 2.17028C10.3763 2.13407 10.4231 2.09699 10.4712 2.05929C10.6547 1.91556 10.86 1.76158 11.0617 1.66106C11.2556 1.56445 11.5234 1.47799 11.7892 1.59397C11.9327 1.65658 12.0427 1.76929 12.0903 1.92404C12.1306 2.05484 12.115 2.18076 12.0939 2.27135C12.8443 1.90744 13.6966 1.91051 14.2415 2.05989C14.3832 2.09871 14.5165 2.15065 14.6276 2.21739C14.7299 2.27887 14.8565 2.37867 14.9173 2.53341C14.9504 2.61769 14.9617 2.71382 14.9397 2.81242C14.9184 2.9083 14.8703 2.98604 14.8165 3.04582C14.7148 3.15867 14.5691 3.23413 14.4176 3.28923C14.3939 3.29782 14.3727 3.30615 14.3536 3.31415C14.6239 3.45271 15.1248 3.56921 15.5943 3.56921C15.9591 3.56921 16.2154 3.51298 16.4345 3.4649C16.5122 3.44787 16.5851 3.43186 16.6566 3.41974C16.7212 3.40879 16.7998 3.39884 16.8792 3.40471C16.9625 3.41087 17.0672 3.43593 17.161 3.51404C17.3416 3.66448 17.356 3.90305 17.356 4.05488C17.356 4.15824 17.3776 4.24516 17.4077 4.34034C17.4112 4.35154 17.4156 4.36465 17.4205 4.37933C17.4476 4.46041 17.4908 4.5894 17.4974 4.71018C17.5078 4.90108 17.4395 5.07327 17.291 5.22244C17.1932 5.3207 17.0595 5.4104 16.8913 5.49955C16.8948 5.50033 16.8983 5.50111 16.9018 5.50189C17.3824 5.60865 18.1595 5.64697 18.8106 5.57333C18.9978 5.55215 19.169 5.55295 19.3116 5.59029C19.4526 5.62721 19.6318 5.72124 19.6948 5.93274C19.7522 6.12526 19.6749 6.29761 19.61 6.40055C19.5388 6.5133 19.4366 6.61774 19.3238 6.71011C18.8791 7.07453 18.0462 7.43172 17.1671 7.3891C16.5587 7.35961 16.1221 7.27221 15.8033 7.20838C15.6948 7.18668 15.6 7.16769 15.5167 7.15464C15.3504 7.1286 15.2264 7.12368 15.1012 7.14622C14.9755 7.16886 14.8275 7.22318 14.6232 7.34451C14.0477 7.6863 13.3457 7.59696 12.8144 7.37425C12.5429 7.26044 12.2936 7.1034 12.1018 6.92252C11.9519 6.78124 11.8134 6.60257 11.7492 6.3978C11.7313 6.40049 11.7102 6.40434 11.6856 6.40979C11.4858 6.45409 11.2021 6.56973 10.8954 6.72116C10.5941 6.86987 10.2916 7.04254 10.0609 7.18669C9.94534 7.25892 9.85119 7.32189 9.78591 7.3694C9.758 7.38972 9.73827 7.4051 9.72561 7.41565C9.69794 7.45441 9.66831 7.48168 9.64895 7.49812C9.6171 7.52517 9.58324 7.54751 9.55243 7.56561C9.49048 7.60201 9.41725 7.635 9.34065 7.66381C9.18638 7.72182 8.99 7.77347 8.78152 7.80068C8.57419 7.82774 8.34013 7.83259 8.11624 7.78579C7.89198 7.73892 7.65698 7.63531 7.48247 7.42803C7.4303 7.36606 7.32867 7.30406 7.16436 7.26348C7.0041 7.22389 6.81377 7.21233 6.62533 7.22512C6.43639 7.23795 6.26661 7.27406 6.14866 7.31781C6.1044 7.33423 6.07401 7.34931 6.05511 7.36052C6.00821 7.47285 5.91785 7.56156 5.79462 7.60017C5.67691 7.63706 5.56476 7.61657 5.4938 7.59716C5.34562 7.55663 5.18578 7.46524 5.04895 7.37432C4.77229 7.19046 4.46753 6.92473 4.31165 6.74171C4.18539 6.6059 4.05003 6.44304 3.94278 6.28128C3.8884 6.19925 3.83728 6.11159 3.79839 6.02339C3.76126 5.93919 3.72525 5.83234 3.72278 5.71769C3.7201 5.59255 3.75912 5.44218 3.88852 5.33193C4.00448 5.23314 4.14614 5.20796 4.26166 5.20566C4.48982 5.2011 4.79994 5.28344 5.19805 5.43934C5.21227 5.44491 5.22621 5.45033 5.23987 5.4556C5.1544 5.33117 5.06719 5.19434 5.00313 5.06166C4.9424 4.93589 4.88524 4.78109 4.88113 4.61717C4.87689 4.44792 4.93046 4.27565 5.06727 4.13917C5.2002 3.9645 5.42146 3.73304 5.68439 3.58661C5.86385 3.48666 6.09651 3.41183 6.33488 3.454C6.32174 3.31951 6.31586 3.16649 6.33477 3.0145C6.3639 2.78031 6.45676 2.51388 6.70232 2.32637C7.04609 2.06387 7.44936 1.8972 7.84187 1.88509C8.04333 1.87887 8.24307 1.91414 8.42522 1.998C8.42041 1.88713 8.4176 1.76841 8.4227 1.65815C8.42754 1.5535 8.44039 1.42712 8.48136 1.31627C8.52106 1.20884 8.6301 1.01626 8.87039 1.00088ZM6.78351 3.69111C6.78352 3.69115 6.78281 3.69075 6.78135 3.68981C6.78277 3.6906 6.7835 3.69107 6.78351 3.69111ZM5.56754 5.93993C5.5675 5.93991 5.56713 5.93902 5.56658 5.93733C5.56731 5.9391 5.56758 5.93995 5.56754 5.93993ZM6.03321 7.37579C6.03311 7.37577 6.03403 7.37486 6.03626 7.3731C6.03442 7.37492 6.0333 7.3758 6.03321 7.37579ZM14.2085 3.3954C14.2085 3.3954 14.2087 3.39522 14.2091 3.39486C14.2087 3.39522 14.2086 3.3954 14.2085 3.3954ZM11.6176 2.47991C11.6177 2.47988 11.6185 2.47974 11.62 2.47958C11.6184 2.47986 11.6176 2.47995 11.6176 2.47991ZM9.55581 2.64943C9.55582 2.64941 9.55636 2.64942 9.55737 2.64952C9.55629 2.6495 9.55579 2.64945 9.55581 2.64943Z" fill="#54555D"/>
<path fill-rule="evenodd" clip-rule="evenodd" d="M8.49944 2.92473C8.44403 2.88163 8.40177 2.82699 8.37229 2.78497C8.25632 2.61967 8.08386 2.54108 7.86149 2.54794C7.63006 2.55508 7.35266 2.65791 7.09139 2.85742C7.03443 2.90091 6.99493 2.97135 6.97917 3.09807C6.96273 3.23017 6.97755 3.38397 7.00073 3.54447C7.00436 3.56961 7.00856 3.5972 7.01282 3.62526C7.02048 3.6756 7.02836 3.72743 7.03362 3.76927C7.04062 3.82494 7.05315 3.92814 7.03427 4.02252C7.0244 4.07185 6.9952 4.17646 6.8962 4.2541C6.78462 4.34161 6.66178 4.33678 6.58741 4.31883C6.519 4.30232 6.46326 4.26962 6.42687 4.24553C6.38679 4.21901 6.34677 4.18696 6.30767 4.15284C6.2421 4.09562 6.15861 4.07792 5.99547 4.16878C5.82836 4.26184 5.66473 4.43106 5.5682 4.56209C5.55693 4.57739 5.54439 4.59166 5.53072 4.60474C5.53253 4.63119 5.54498 4.68397 5.58576 4.76845C5.65756 4.91715 5.76974 5.07379 5.88737 5.23805C5.91453 5.27597 5.94197 5.31429 5.96928 5.35302C6.03366 5.44432 6.10667 5.55135 6.15198 5.64962C6.17384 5.69703 6.20386 5.77245 6.2082 5.86053C6.21329 5.96375 6.18127 6.10074 6.05916 6.19622C5.95927 6.27432 5.84718 6.28434 5.78277 6.2847C5.7106 6.2851 5.63469 6.273 5.56077 6.25623C5.41166 6.2224 5.21535 6.15638 4.96542 6.05851C4.77686 5.98467 4.62677 5.93572 4.50925 5.90586C4.49645 5.90261 4.48416 5.89961 4.47238 5.89687C4.47511 5.90106 4.47789 5.90529 4.48072 5.90957C4.56336 6.0342 4.67582 6.17054 4.78749 6.29022C4.79136 6.29437 4.79511 6.29861 4.79876 6.30295C4.90374 6.42779 5.16206 6.6582 5.40332 6.81854C5.46712 6.86093 5.52177 6.89299 5.56596 6.91581C5.59829 6.88077 5.63184 6.85307 5.66063 6.83198C5.74041 6.77353 5.83414 6.7289 5.92683 6.69452C6.11376 6.62518 6.34576 6.57948 6.58224 6.56343C6.81922 6.54734 7.07795 6.55984 7.31711 6.61892C7.55222 6.67699 7.80037 6.78824 7.9751 6.99577C8.02748 7.05799 8.1139 7.10839 8.24653 7.13611C8.37951 7.1639 8.53778 7.16394 8.69914 7.14288C8.85937 7.12196 9.00804 7.08217 9.11612 7.04153C9.16475 7.02324 9.19964 7.00684 9.22115 6.99497C9.23212 6.98099 9.2416 6.97071 9.24725 6.96468C9.2645 6.94624 9.28251 6.9297 9.29829 6.91599C9.33014 6.88832 9.36838 6.85886 9.40883 6.82942C9.49068 6.76985 9.5986 6.69807 9.72175 6.6211C9.96851 6.46688 10.2899 6.28343 10.6126 6.12413C10.9298 5.96756 11.27 5.82333 11.5477 5.76175C11.6807 5.73224 11.8414 5.71155 11.9889 5.74892C12.068 5.76898 12.1577 5.80947 12.2325 5.88826C12.3098 5.96976 12.3497 6.06982 12.362 6.16966C12.3671 6.2116 12.4078 6.30837 12.5425 6.43531C12.6696 6.55521 12.8505 6.67248 13.0612 6.7608C13.4942 6.94234 13.9645 6.9685 14.2965 6.77129C14.546 6.62312 14.7667 6.53306 14.9884 6.49314C15.2106 6.45312 15.4127 6.46744 15.6152 6.49915C15.7299 6.51713 15.844 6.53997 15.9659 6.56437C16.2784 6.62695 16.6418 6.69973 17.1979 6.72669C17.871 6.75933 18.5175 6.49319 18.8641 6.23447C18.1575 6.31213 17.3183 6.27307 16.7637 6.14989C16.6225 6.11854 16.4891 6.07945 16.3765 6.03026C16.2762 5.98638 16.1408 5.91308 16.0563 5.78482C16.0083 5.71202 15.974 5.61679 15.981 5.50694C15.9878 5.40007 16.0316 5.31311 16.0801 5.2492C16.1692 5.13188 16.3064 5.04927 16.4417 4.98569C16.6794 4.87398 16.7883 4.79706 16.8354 4.74975C16.8409 4.74422 16.8449 4.73972 16.8477 4.73627C16.845 4.71637 16.837 4.69186 16.8183 4.63404C16.8107 4.61035 16.8012 4.58107 16.7896 4.54423C16.753 4.42882 16.7108 4.27547 16.7068 4.08475C16.6794 4.09045 16.6485 4.09728 16.6142 4.10485C16.3942 4.15353 16.0378 4.23237 15.5943 4.23237C15.0281 4.23237 14.383 4.09115 13.9992 3.87286C13.9011 3.81701 13.801 3.74563 13.7242 3.65404C13.6463 3.56114 13.5715 3.42036 13.5912 3.24569C13.6106 3.07376 13.7128 2.94922 13.8154 2.86669C13.8931 2.80413 13.9877 2.75158 14.0938 2.7062C14.087 2.70424 14.0801 2.70229 14.0731 2.70036C13.6465 2.58344 12.9355 2.58339 12.3359 2.88863C12.1615 2.97742 12.0204 3.04197 11.9082 3.08284C11.8521 3.10329 11.7963 3.12041 11.7426 3.13083C11.6927 3.1405 11.622 3.1491 11.5458 3.13384C11.4598 3.1166 11.3563 3.06527 11.2916 2.95285C11.2346 2.85388 11.2363 2.7556 11.2419 2.70266C11.2523 2.60342 11.2953 2.50633 11.3192 2.45343C11.3396 2.40812 11.3584 2.36833 11.3755 2.33242C11.3949 2.29152 11.4119 2.25564 11.4261 2.22234C11.4032 2.2307 11.3768 2.24201 11.3467 2.257C11.2104 2.32491 11.0518 2.44043 10.8666 2.58546C10.8264 2.6169 10.7849 2.64988 10.7423 2.68362C10.5999 2.79663 10.4468 2.91811 10.3009 3.01847C10.117 3.14489 9.89237 3.2763 9.65971 3.30591C9.55282 3.31951 9.4202 3.31778 9.29695 3.25C9.16002 3.17469 9.09304 3.05127 9.06399 2.94284C9.05147 2.8961 9.04497 2.84891 9.04195 2.80426C9.01438 2.85922 8.9651 2.92712 8.87811 2.97015C8.69761 3.05944 8.54581 2.9608 8.49944 2.92473ZM8.82861 1.64913C8.82859 1.64905 8.82964 1.64955 8.83178 1.65087C8.82969 1.64988 8.82862 1.64922 8.82861 1.64913ZM11.4658 2.09559C11.4658 2.09559 11.4658 2.09571 11.4658 2.09597C11.4658 2.09572 11.4658 2.09559 11.4658 2.09559ZM14.3337 2.81439C14.3336 2.81439 14.3335 2.81426 14.3333 2.81401C14.3335 2.81426 14.3337 2.81439 14.3337 2.81439ZM16.6995 3.95826C16.6995 3.95825 16.6996 3.95857 16.6998 3.95925C16.6996 3.95861 16.6995 3.95827 16.6995 3.95826ZM16.854 4.72774C16.854 4.72775 16.8539 4.72788 16.8538 4.72813C16.8539 4.72787 16.854 4.72774 16.854 4.72774ZM19.0729 6.02489C19.073 6.02487 19.0725 6.0263 19.071 6.02927C19.072 6.0264 19.0728 6.0249 19.0729 6.02489ZM5.67138 6.95867C5.67143 6.95875 5.67023 6.95861 5.66767 6.95804C5.67005 6.95831 5.67133 6.9586 5.67138 6.95867ZM4.25199 5.87054C4.25197 5.87051 4.25262 5.87034 4.25406 5.87012C4.25274 5.87045 4.25202 5.87056 4.25199 5.87054ZM8.87039 1.00088C9.05921 0.988798 9.21145 1.10364 9.30557 1.18881C9.77763 1.61602 9.73481 2.18138 9.70663 2.49688C9.70488 2.51656 9.70319 2.5349 9.70161 2.55214C9.69968 2.57308 9.6979 2.59241 9.69633 2.61053C9.75974 2.58195 9.83957 2.53612 9.93793 2.46847C10.0638 2.3819 10.1922 2.28009 10.3306 2.17028C10.3763 2.13407 10.4231 2.09699 10.4712 2.05929C10.6547 1.91556 10.86 1.76158 11.0617 1.66106C11.2556 1.56445 11.5234 1.47799 11.7892 1.59397C11.9327 1.65658 12.0427 1.76929 12.0903 1.92404C12.1306 2.05484 12.115 2.18076 12.0939 2.27135C12.8443 1.90744 13.6966 1.91051 14.2415 2.05989C14.3832 2.09871 14.5165 2.15065 14.6276 2.21739C14.7299 2.27887 14.8565 2.37867 14.9173 2.53341C14.9504 2.61769 14.9617 2.71382 14.9397 2.81242C14.9184 2.9083 14.8703 2.98604 14.8165 3.04582C14.7148 3.15867 14.5691 3.23413 14.4176 3.28923C14.3939 3.29782 14.3727 3.30615 14.3536 3.31415C14.6239 3.45271 15.1248 3.56921 15.5943 3.56921C15.9591 3.56921 16.2154 3.51298 16.4345 3.4649C16.5122 3.44787 16.5851 3.43186 16.6566 3.41974C16.7212 3.40879 16.7998 3.39884 16.8792 3.40471C16.9625 3.41087 17.0672 3.43593 17.161 3.51404C17.3416 3.66448 17.356 3.90305 17.356 4.05488C17.356 4.15824 17.3776 4.24516 17.4077 4.34034C17.4112 4.35154 17.4156 4.36465 17.4205 4.37933C17.4476 4.46041 17.4908 4.5894 17.4974 4.71018C17.5078 4.90108 17.4395 5.07327 17.291 5.22244C17.1932 5.3207 17.0595 5.4104 16.8913 5.49955C16.8948 5.50033 16.8983 5.50111 16.9018 5.50189C17.3824 5.60865 18.1595 5.64697 18.8106 5.57333C18.9978 5.55215 19.169 5.55295 19.3116 5.59029C19.4526 5.62721 19.6318 5.72124 19.6948 5.93274C19.7522 6.12526 19.6749 6.29761 19.61 6.40055C19.5388 6.5133 19.4366 6.61774 19.3238 6.71011C18.8791 7.07453 18.0462 7.43172 17.1671 7.3891C16.5587 7.35961 16.1221 7.27221 15.8033 7.20838C15.6948 7.18668 15.6 7.16769 15.5167 7.15464C15.3504 7.1286 15.2264 7.12368 15.1012 7.14622C14.9755 7.16886 14.8275 7.22318 14.6232 7.34451C14.0477 7.6863 13.3457 7.59696 12.8144 7.37425C12.5429 7.26044 12.2936 7.1034 12.1018 6.92252C11.9519 6.78124 11.8134 6.60257 11.7492 6.3978C11.7313 6.40049 11.7102 6.40434 11.6856 6.40979C11.4858 6.45409 11.2021 6.56973 10.8954 6.72116C10.5941 6.86987 10.2916 7.04254 10.0609 7.18669C9.94534 7.25892 9.85119 7.32189 9.78591 7.3694C9.758 7.38972 9.73827 7.4051 9.72561 7.41565C9.69794 7.45441 9.66831 7.48168 9.64895 7.49812C9.6171 7.52517 9.58324 7.54751 9.55243 7.56561C9.49048 7.60201 9.41725 7.635 9.34065 7.66381C9.18638 7.72182 8.99 7.77347 8.78152 7.80068C8.57419 7.82774 8.34013 7.83259 8.11624 7.78579C7.89198 7.73892 7.65698 7.63531 7.48247 7.42803C7.4303 7.36606 7.32867 7.30406 7.16436 7.26348C7.0041 7.22389 6.81377 7.21233 6.62533 7.22512C6.43639 7.23795 6.26661 7.27406 6.14866 7.31781C6.1044 7.33423 6.07401 7.34931 6.05511 7.36052C6.00821 7.47285 5.91785 7.56156 5.79462 7.60017C5.67691 7.63706 5.56476 7.61657 5.4938 7.59716C5.34562 7.55663 5.18578 7.46524 5.04895 7.37432C4.77229 7.19046 4.46753 6.92473 4.31165 6.74171C4.18539 6.6059 4.05003 6.44304 3.94278 6.28128C3.8884 6.19925 3.83728 6.11159 3.79839 6.02339C3.76126 5.93919 3.72525 5.83234 3.72278 5.71769C3.7201 5.59255 3.75912 5.44218 3.88852 5.33193C4.00448 5.23314 4.14614 5.20796 4.26166 5.20566C4.48982 5.2011 4.79994 5.28344 5.19805 5.43934C5.21227 5.44491 5.22621 5.45033 5.23987 5.4556C5.1544 5.33117 5.06719 5.19434 5.00313 5.06166C4.9424 4.93589 4.88524 4.78109 4.88113 4.61717C4.87689 4.44792 4.93046 4.27565 5.06727 4.13917C5.2002 3.9645 5.42146 3.73304 5.68439 3.58661C5.86385 3.48666 6.09651 3.41183 6.33488 3.454C6.32174 3.31951 6.31586 3.16649 6.33477 3.0145C6.3639 2.78031 6.45676 2.51388 6.70232 2.32637C7.04609 2.06387 7.44936 1.8972 7.84187 1.88509C8.04333 1.87887 8.24307 1.91414 8.42522 1.998C8.42041 1.88713 8.4176 1.76841 8.4227 1.65815C8.42754 1.5535 8.44039 1.42712 8.48136 1.31627C8.52106 1.20884 8.6301 1.01626 8.87039 1.00088ZM6.78351 3.69111C6.78352 3.69115 6.78281 3.69075 6.78135 3.68981C6.78277 3.6906 6.7835 3.69107 6.78351 3.69111ZM5.56754 5.93993C5.5675 5.93991 5.56713 5.93902 5.56658 5.93733C5.56731 5.9391 5.56758 5.93995 5.56754 5.93993ZM6.03321 7.37579C6.03311 7.37577 6.03403 7.37486 6.03626 7.3731C6.03442 7.37492 6.0333 7.3758 6.03321 7.37579ZM14.2085 3.3954C14.2085 3.3954 14.2087 3.39522 14.2091 3.39486C14.2087 3.39522 14.2086 3.3954 14.2085 3.3954ZM11.6176 2.47991C11.6177 2.47988 11.6185 2.47974 11.62 2.47958C11.6184 2.47986 11.6176 2.47995 11.6176 2.47991ZM9.55581 2.64943C9.55582 2.64941 9.55636 2.64942 9.55737 2.64952C9.55629 2.6495 9.55579 2.64945 9.55581 2.64943Z" stroke="#54555D" stroke-width="0.4" stroke-linecap="round" stroke-linejoin="round" mask="url(#path-15-outside-1_163_494)"/>
</svg>
