<svg width="100" height="30" viewBox="0 0 100 30" fill="none" xmlns="http://www.w3.org/2000/svg">
<path d="M42.4586 12.9271C42.4586 14.0003 42.0885 14.8946 41.3484 15.6101C40.6206 16.3132 39.5042 16.6648 37.9992 16.6648H35.5198V22.0493H33.8359V9.15234H37.9992C39.4548 9.15234 40.5589 9.50391 41.3114 10.207C42.0762 10.9102 42.4586 11.8168 42.4586 12.9271ZM37.9992 15.277C38.9367 15.277 39.6275 15.0735 40.0716 14.6664C40.5157 14.2593 40.7377 13.6795 40.7377 12.9271C40.7377 11.3358 39.8249 10.5401 37.9992 10.5401H35.5198V15.277H37.9992Z" fill="#54555D"/>
<path d="M46.2352 8.35669V22.0493H44.5513V8.35669H46.2352Z" fill="#54555D"/>
<path d="M48.4758 16.9423C48.4758 15.9061 48.6855 14.9994 49.1049 14.2223C49.5244 13.4328 50.098 12.8222 50.8258 12.3905C51.5659 11.9587 52.3862 11.7428 53.2867 11.7428C54.1749 11.7428 54.9459 11.934 55.5997 12.3164C56.2535 12.6988 56.7407 13.1799 57.0615 13.7597V11.9094H58.7638V22.0493H57.0615V20.1619C56.7284 20.754 56.2288 21.2475 55.5627 21.6422C54.9089 22.0246 54.1441 22.2158 53.2682 22.2158C52.3677 22.2158 51.5536 21.9938 50.8258 21.5497C50.098 21.1056 49.5244 20.4827 49.1049 19.6808C48.6855 18.879 48.4758 17.9662 48.4758 16.9423ZM57.0615 16.9608C57.0615 16.196 56.9073 15.5299 56.5989 14.9624C56.2905 14.395 55.8711 13.9633 55.3406 13.6672C54.8225 13.3588 54.2489 13.2046 53.6198 13.2046C52.9907 13.2046 52.4171 13.3526 51.899 13.6487C51.3809 13.9447 50.9676 14.3765 50.6592 14.9439C50.3508 15.5114 50.1967 16.1775 50.1967 16.9423C50.1967 17.7195 50.3508 18.3979 50.6592 18.9777C50.9676 19.5451 51.3809 19.9831 51.899 20.2915C52.4171 20.5875 52.9907 20.7355 53.6198 20.7355C54.2489 20.7355 54.8225 20.5875 55.3406 20.2915C55.8711 19.9831 56.2905 19.5451 56.5989 18.9777C56.9073 18.3979 57.0615 17.7256 57.0615 16.9608Z" fill="#54555D"/>
<path d="M65.199 22.2158C64.4218 22.2158 63.7248 22.0863 63.1081 21.8272C62.4913 21.5559 62.004 21.1858 61.6463 20.717C61.2885 20.2359 61.0912 19.687 61.0542 19.0702H62.7935C62.8428 19.576 63.0772 19.9892 63.4966 20.31C63.9284 20.6307 64.4896 20.791 65.1804 20.791C65.8219 20.791 66.3277 20.6492 66.6977 20.3655C67.0678 20.0817 67.2528 19.724 67.2528 19.2923C67.2528 18.8482 67.0555 18.5213 66.6607 18.3116C66.266 18.0895 65.6554 17.8737 64.8289 17.664C64.0764 17.4666 63.4596 17.2692 62.9785 17.0718C62.5098 16.8621 62.1027 16.5599 61.7573 16.1652C61.4242 15.7581 61.2577 15.2277 61.2577 14.5739C61.2577 14.0558 61.4119 13.5808 61.7203 13.1491C62.0287 12.7173 62.4666 12.3781 63.034 12.1314C63.6015 11.8724 64.2491 11.7428 64.9769 11.7428C66.0995 11.7428 67.0061 12.0266 67.6969 12.594C68.3877 13.1614 68.7578 13.9386 68.8071 14.9254H67.1233C67.0863 14.395 66.8704 13.9694 66.4757 13.6487C66.0933 13.328 65.5752 13.1676 64.9214 13.1676C64.3169 13.1676 63.8359 13.2971 63.4781 13.5562C63.1204 13.8152 62.9415 14.1545 62.9415 14.5739C62.9415 14.9069 63.0464 15.1845 63.2561 15.4065C63.4781 15.6162 63.7495 15.7889 64.0702 15.9246C64.4033 16.048 64.8597 16.1898 65.4395 16.3502C66.1673 16.5476 66.7594 16.7449 67.2158 16.9423C67.6723 17.1274 68.0608 17.4111 68.3816 17.7935C68.7146 18.1759 68.8873 18.6755 68.8997 19.2923C68.8997 19.8474 68.7455 20.347 68.4371 20.791C68.1287 21.2351 67.6908 21.5867 67.1233 21.8457C66.5682 22.0925 65.9268 22.2158 65.199 22.2158Z" fill="#54555D"/>
<path d="M83.4704 11.7243C84.2599 11.7243 84.9631 11.8909 85.5798 12.2239C86.1966 12.5446 86.6839 13.0319 87.0416 13.6857C87.3994 14.3395 87.5782 15.1351 87.5782 16.0727V22.0493H85.9129V16.3132C85.9129 15.3017 85.66 14.5307 85.1543 14.0003C84.6608 13.4575 83.9885 13.1861 83.1374 13.1861C82.2615 13.1861 81.5646 13.4698 81.0465 14.0373C80.5284 14.5924 80.2693 15.4004 80.2693 16.4612V22.0493H78.604V16.3132C78.604 15.3017 78.3511 14.5307 77.8454 14.0003C77.3519 13.4575 76.6797 13.1861 75.8285 13.1861C74.9527 13.1861 74.2557 13.4698 73.7376 14.0373C73.2195 14.5924 72.9604 15.4004 72.9604 16.4612V22.0493H71.2766V11.9094H72.9604V13.3711C73.2935 12.8407 73.7376 12.4336 74.2927 12.1499C74.8601 11.8662 75.4831 11.7243 76.1616 11.7243C77.0127 11.7243 77.7652 11.9155 78.419 12.2979C79.0728 12.6803 79.56 13.2416 79.8808 13.9818C80.1645 13.2663 80.6332 12.7112 81.287 12.3164C81.9408 11.9217 82.6686 11.7243 83.4704 11.7243Z" fill="#54555D"/>
<path d="M89.7112 16.9423C89.7112 15.9061 89.9209 14.9994 90.3403 14.2223C90.7597 13.4328 91.3333 12.8222 92.0611 12.3905C92.8013 11.9587 93.6216 11.7428 94.5221 11.7428C95.4103 11.7428 96.1812 11.934 96.835 12.3164C97.4888 12.6988 97.9761 13.1799 98.2968 13.7597V11.9094H99.9991V22.0493H98.2968V20.1619C97.9637 20.754 97.4642 21.2475 96.798 21.6422C96.1442 22.0246 95.3794 22.2158 94.5036 22.2158C93.6031 22.2158 92.7889 21.9938 92.0611 21.5497C91.3333 21.1056 90.7597 20.4827 90.3403 19.6808C89.9209 18.879 89.7112 17.9662 89.7112 16.9423ZM98.2968 16.9608C98.2968 16.196 98.1426 15.5299 97.8342 14.9624C97.5258 14.395 97.1064 13.9633 96.576 13.6672C96.0579 13.3588 95.4843 13.2046 94.8552 13.2046C94.226 13.2046 93.6524 13.3526 93.1343 13.6487C92.6162 13.9447 92.203 14.3765 91.8946 14.9439C91.5862 15.5114 91.432 16.1775 91.432 16.9423C91.432 17.7195 91.5862 18.3979 91.8946 18.9777C92.203 19.5451 92.6162 19.9831 93.1343 20.2915C93.6524 20.5875 94.226 20.7355 94.8552 20.7355C95.4843 20.7355 96.0579 20.5875 96.576 20.2915C97.1064 19.9831 97.5258 19.5451 97.8342 18.9777C98.1426 18.3979 98.2968 17.7256 98.2968 16.9608Z" fill="#54555D"/>
<path d="M22.1094 6.66467C24.2856 6.66483 26.0545 8.43569 26.0547 10.6119C26.0547 12.7884 24.284 14.5581 22.1094 14.5582C21.758 14.5582 21.4171 14.5109 21.0928 14.4244L17.834 20.0699C18.477 20.7852 18.8691 21.7315 18.8691 22.7692C18.8689 24.9995 17.0624 26.8061 14.832 26.8063C12.6016 26.8063 10.7942 24.9995 10.7939 22.7692C10.7939 21.6306 11.2659 20.6031 12.0225 19.8698L8.73242 14.401C8.38491 14.5018 8.01775 14.5562 7.63965 14.5563C5.46328 14.5563 3.6936 12.7855 3.69336 10.611C3.69336 8.43444 5.46493 6.66467 7.63965 6.66467C9.72047 6.66491 11.4301 8.28487 11.5742 10.3297H18.1738C18.3198 8.28472 20.0283 6.66467 22.1094 6.66467ZM14.625 22.8639H13.6895V23.3649H14.625V24.3004H15.125V23.3649H16.0625V22.8639H15.125V21.9274H14.625V22.8639ZM11.5742 10.8912C11.4697 12.3651 10.5522 13.619 9.26758 14.2028L12.457 19.5035C13.1236 19.0171 13.9438 18.7311 14.832 18.7311C15.8155 18.7311 16.7162 19.0841 17.417 19.6676L20.5527 14.236C19.2302 13.6666 18.2801 12.3939 18.1738 10.8912H11.5742ZM7.64062 7.17639C5.74715 7.17659 4.20703 8.71744 4.20703 10.611C4.20727 12.5043 5.7473 14.0444 7.64062 14.0446C9.53412 14.0446 11.075 12.5044 11.0752 10.611C11.0752 8.71732 9.53427 7.17639 7.64062 7.17639ZM22.1094 7.17639C20.2157 7.17639 18.6748 8.71732 18.6748 10.611C18.675 12.5044 20.2159 14.0446 22.1094 14.0446C24.0027 14.0444 25.5427 12.5043 25.543 10.611C25.543 8.71741 24.0029 7.17655 22.1094 7.17639Z" fill="#54555D"/>
<path d="M14.8753 29.7506C6.67369 29.7506 0 23.0787 0 14.8753C0 6.6737 6.67189 0 14.8753 0C23.0787 0 29.7506 6.67189 29.7506 14.8753C29.7506 23.0769 23.0769 29.7506 14.8753 29.7506ZM14.8753 1.01979C7.23584 1.01979 1.01979 7.23584 1.01979 14.8753C1.01979 22.5147 7.23584 28.7308 14.8753 28.7308C22.5147 28.7308 28.7308 22.5147 28.7308 14.8753C28.7308 7.23584 22.5147 1.01979 14.8753 1.01979Z" fill="#54555D"/>
</svg>
