<svg width="122" height="30" viewBox="0 0 122 30" fill="none" xmlns="http://www.w3.org/2000/svg">
<path d="M11.9575 23.1595H6.71881C5.5832 23.1448 4.47557 22.8051 3.52693 22.1806C2.5783 21.5562 1.82836 20.6731 1.36584 19.6359L0.0249992 16.7567C0.00813458 16.7255 -0.00046516 16.6905 1.94006e-05 16.655C0.000503961 16.6196 0.010056 16.5848 0.0277668 16.5541C0.0454776 16.5233 0.0707588 16.4976 0.101203 16.4794C0.131648 16.4612 0.166242 16.4511 0.201697 16.4501H5.09213C6.22819 16.4657 7.33613 16.8057 8.28542 17.43C9.23472 18.0542 9.98584 18.9368 10.4503 19.9737L11.9575 23.1595Z" fill="#54555D"/>
<path d="M10.877 23.1595H16.074C17.2096 23.1448 18.3173 22.8051 19.2659 22.1806C20.2145 21.5562 20.9645 20.6731 21.427 19.6359L22.773 16.7567C22.7886 16.7249 22.796 16.6898 22.7946 16.6544C22.7932 16.6191 22.783 16.5847 22.7649 16.5542C22.7469 16.5238 22.7216 16.4984 22.6912 16.4802C22.6609 16.462 22.6265 16.4516 22.5911 16.4501H17.7007C16.5652 16.4654 15.4579 16.8054 14.5093 17.4297C13.5608 18.0541 12.8108 18.9368 12.3477 19.9737L10.877 23.1595Z" fill="#54555D"/>
<path d="M11.2362 5.81126L9.04823 8.79437C8.34478 9.76083 8.01047 10.9472 8.10579 12.1387C8.20111 13.3303 8.71978 14.4484 9.56794 15.2907L11.2778 17.0005C11.2976 17.0203 11.3211 17.036 11.3469 17.0468C11.3728 17.0575 11.4005 17.063 11.4285 17.063C11.4565 17.063 11.4842 17.0575 11.5101 17.0468C11.5359 17.036 11.5594 17.0203 11.5792 17.0005L13.289 15.2907C14.1362 14.4478 14.6542 13.3299 14.7495 12.1386C14.8448 10.9473 14.5112 9.76122 13.8087 8.79437L11.626 5.81126C11.6093 5.77349 11.582 5.74139 11.5474 5.71885C11.5128 5.69632 11.4724 5.68433 11.4311 5.68433C11.3898 5.68433 11.3494 5.69632 11.3148 5.71885C11.2802 5.74139 11.2529 5.77349 11.2362 5.81126Z" fill="#54555D"/>
<path d="M33.853 23.0819C32.0012 23.1585 30.1695 22.673 28.5988 21.6891C27.9164 21.2241 27.3412 20.6186 26.9119 19.9132C26.4825 19.2078 26.2089 18.4188 26.1094 17.599L29.6278 16.7052C29.7339 17.4278 30.0198 18.1123 30.4593 18.6956C30.8446 19.1754 31.3583 19.5359 31.9405 19.735C32.5575 19.9375 33.2036 20.0375 33.853 20.0313C34.6724 20.0896 35.4897 19.8916 36.1917 19.4648C36.4321 19.3118 36.6301 19.1006 36.7673 18.8508C36.9045 18.601 36.9764 18.3206 36.9764 18.0356C36.9898 17.7665 36.9266 17.4992 36.7941 17.2646C36.6617 17.03 36.4654 16.8378 36.2281 16.7103C35.513 16.3469 34.7446 16.0995 33.9517 15.9776L32.9123 15.8113C31.8534 15.6113 30.8174 15.3048 29.8201 14.8966C28.9529 14.5557 28.1821 14.0079 27.575 13.3011C26.9878 12.5658 26.6868 11.6426 26.7278 10.7025C26.6932 9.98811 26.8377 9.27636 27.1481 8.63195C27.4585 7.98754 27.925 7.43091 28.5052 7.01263C29.8852 6.09041 31.5246 5.63503 33.1826 5.71336C34.7903 5.64943 36.379 6.07927 37.7352 6.94507C38.893 7.71325 39.7217 8.88671 40.0583 10.2348L36.5399 11.3002C36.4918 10.908 36.3637 10.5299 36.1634 10.1893C35.9632 9.84867 35.6951 9.55284 35.3757 9.32012C34.7167 8.91717 33.9547 8.71491 33.1826 8.73805C32.4694 8.69528 31.7588 8.85758 31.1349 9.20579C30.9094 9.34502 30.7248 9.54144 30.5997 9.77511C30.4747 10.0088 30.4137 10.2714 30.4229 10.5362C30.4116 10.7989 30.4742 11.0595 30.6038 11.2883C30.7334 11.5171 30.9246 11.7049 31.1557 11.8303C31.7634 12.1615 32.4281 12.3748 33.115 12.4592L34.1544 12.6618C35.2779 12.8587 36.3834 13.1473 37.4598 13.5246C38.3606 13.8215 39.1684 14.3481 39.8036 15.0525C40.4117 15.8136 40.7188 16.7718 40.6663 17.7446C40.706 18.5017 40.559 19.2569 40.2382 19.9439C39.9174 20.6308 39.4326 21.2284 38.8266 21.6839C37.5931 22.6194 35.9353 23.0854 33.853 23.0819Z" fill="#54555D"/>
<path d="M42.1465 29.3961V5.79108H43.7784C44.3655 5.79108 44.9287 6.02434 45.3439 6.43953C45.7591 6.85473 45.9923 7.41785 45.9923 8.00503H46.5692C47.0203 7.23517 47.6585 6.59165 48.4245 6.13409C49.2769 5.5884 50.5034 5.31815 52.0625 5.31815C53.3937 5.30958 54.7033 5.6558 55.8563 6.32119C57.0502 7.01782 58.023 8.03747 58.6627 9.26272C59.399 10.7089 59.7566 12.3182 59.7022 13.9401V14.4598C59.7566 16.0817 59.399 17.6909 58.6627 19.1371C58.0272 20.3603 57.06 21.3797 55.8719 22.0787C54.7151 22.7486 53.3993 23.0951 52.0625 23.0817C51.1575 23.1056 50.2548 22.9791 49.3912 22.7075C48.7503 22.5024 48.1592 22.1661 47.6554 21.7201C47.2546 21.3625 46.9048 20.9516 46.616 20.4988H46.0599V29.3961H42.1465ZM50.9243 19.6568C51.5745 19.6797 52.2225 19.5693 52.8285 19.3324C53.4344 19.0956 53.9855 18.7373 54.4479 18.2796C55.3695 17.358 55.8286 16.0484 55.8252 14.3506V14.0076C55.8252 12.2874 55.3626 10.9674 54.4323 10.0631C53.9691 9.6121 53.4196 9.25911 52.8169 9.02516C52.2142 8.79122 51.5705 8.68111 50.9243 8.70143C50.2759 8.68197 49.6301 8.79241 49.0249 9.02625C48.4198 9.26009 47.8676 9.61261 47.4007 10.0631C46.46 10.9674 45.9923 12.2874 45.9923 14.0076V14.3506C45.9923 16.0518 46.4618 17.3615 47.4007 18.2796C47.8637 18.7378 48.4144 19.0978 49.0199 19.3381C49.6254 19.5783 50.2731 19.6938 50.9243 19.6776V19.6568Z" fill="#54555D"/>
<path d="M60.9922 23.0817V5.79104H62.8995C63.4141 5.79242 63.9072 5.99781 64.2706 6.36218C64.6339 6.72654 64.838 7.22015 64.838 7.73475H65.4149C65.6236 7.08064 66.0757 6.53175 66.6778 6.20161C67.3301 5.86835 68.0555 5.70396 68.7878 5.72348H70.8302V9.19512H68.7202C67.7206 9.14836 66.7387 9.47013 65.9606 10.0994C65.5927 10.4562 65.3086 10.8902 65.1288 11.3702C64.9491 11.8501 64.8782 12.364 64.9212 12.8746V23.0817H60.9922Z" fill="#54555D"/>
<path d="M79.2344 23.4456C77.7103 23.4723 76.2027 23.1262 74.8429 22.4374C73.5756 21.7854 72.5195 20.7869 71.7974 19.5582C71.0244 18.1908 70.6398 16.6381 70.6853 15.0679V14.5482C70.6411 12.9733 71.0255 11.4159 71.7974 10.0424C72.5118 8.80758 73.57 7.80722 74.8429 7.16321C76.205 6.48169 77.7116 6.13937 79.2344 6.16538C80.7507 6.1388 82.2507 6.48125 83.6051 7.16321C84.8715 7.8109 85.9236 8.81073 86.635 10.0424C87.4045 11.4169 87.7887 12.9736 87.7472 14.5482V15.0679C87.7903 16.6378 87.4059 18.1899 86.635 19.5582C85.9161 20.7839 84.8659 21.7818 83.6051 22.4374C82.2532 23.1275 80.7521 23.4738 79.2344 23.4456ZM79.2344 20.0675C79.8643 20.0901 80.4921 19.9827 81.0787 19.752C81.6652 19.5214 82.198 19.1723 82.6437 18.7267C83.1048 18.2209 83.4597 17.6277 83.6873 16.9823C83.9149 16.3369 84.0107 15.6523 83.969 14.9692V14.6366C84.0107 13.9535 83.9149 13.2689 83.6873 12.6235C83.4597 11.978 83.1048 11.3849 82.6437 10.8791C81.7167 10.017 80.4977 9.53778 79.2318 9.53778C77.9659 9.53778 76.7469 10.017 75.82 10.8791C75.3607 11.3857 75.0077 11.9793 74.7819 12.6247C74.5561 13.27 74.4619 13.9542 74.5051 14.6366V14.9692C74.4633 15.6523 74.5591 16.3369 74.7867 16.9823C75.0144 17.6277 75.3693 18.2209 75.8304 18.7267C76.2757 19.1714 76.8076 19.5199 77.3932 19.7506C77.9787 19.9812 78.6054 20.0891 79.2344 20.0675Z" fill="#54555D"/>
<path d="M95.9576 23.1076C94.7553 23.1326 93.5685 22.8328 92.5224 22.2397C91.5277 21.6671 90.7221 20.8163 90.2045 19.7919C89.6409 18.6432 89.3611 17.376 89.3886 16.0968V5.79102H93.2708V15.7902C93.2708 17.1518 93.6034 18.1652 94.2738 18.82C94.6579 19.1658 95.1073 19.4313 95.5955 19.6008C96.0837 19.7704 96.6009 19.8407 97.1166 19.8075C97.7307 19.8375 98.3438 19.7309 98.9118 19.4955C99.4797 19.26 99.9884 18.9016 100.401 18.4459C101.207 17.5416 101.607 16.2319 101.607 14.5325V5.79102H105.489L105.541 23.1076H104.081C103.458 23.1076 102.86 22.8601 102.42 22.4196C101.979 21.9791 101.732 21.3816 101.732 20.7586L101.098 20.4883C100.713 21.2033 100.158 21.8121 99.4813 22.2605C98.6982 22.8287 97.5237 23.1111 95.9576 23.1076Z" fill="#54555D"/>
<path d="M107.141 5.76451V0.35437H111.054V5.76451H115.888C115.888 6.18921 115.805 6.60987 115.643 7.00237C115.481 7.39487 115.243 7.7515 114.942 8.05181C114.642 8.35211 114.285 8.5902 113.893 8.75241C113.5 8.91462 113.08 8.99777 112.655 8.99708H111.054V18.8195C111.054 19.5003 111.371 19.8589 112.005 19.8589H112.135C112.995 19.8589 113.82 20.2006 114.428 20.8088C115.037 21.417 115.378 22.2418 115.378 23.1019H110.701C110.217 23.1379 109.731 23.068 109.276 22.897C108.822 22.726 108.41 22.4581 108.07 22.1118C107.729 21.7656 107.469 21.3493 107.306 20.892C107.142 20.4348 107.081 19.9474 107.125 19.464V8.99708" fill="#54555D"/>
<path d="M118.976 19.5835H116.674L117.329 21.257C117.49 21.7679 117.802 22.2181 118.224 22.5483C118.646 22.8785 119.159 23.0733 119.693 23.1071H122.001L121.341 21.4336C121.179 20.9227 120.867 20.4725 120.445 20.1423C120.023 19.8121 119.511 19.6173 118.976 19.5835Z" fill="#54555D"/>
</svg>
