<svg width="92" height="92" viewBox="0 0 92 92" fill="none" xmlns="http://www.w3.org/2000/svg">
<path d="M11.5137 18.4436C11.5137 13.5615 15.4714 9.60376 20.3535 9.60376H29.7936C34.6757 9.60376 38.6335 13.5615 38.6335 18.4436V73.3926C38.6335 78.2747 34.6757 82.2325 29.7936 82.2325H20.3535C15.4714 82.2325 11.5137 78.2747 11.5137 73.3926V18.4436Z" fill="white"/>
<path d="M53.5848 18.4436C53.5848 13.5615 57.5426 9.60376 62.4247 9.60376H71.8648C76.7469 9.60376 80.7047 13.5615 80.7047 18.4436V73.3926C80.7047 78.2747 76.7469 82.2325 71.8648 82.2325H62.4247C57.5426 82.2325 53.5848 78.2747 53.5848 73.3926V18.4436Z" fill="white"/>
</svg>
