<svg width="1438" height="1438" viewBox="0 0 1438 1438" fill="none" xmlns="http://www.w3.org/2000/svg">
<g clip-path="url(#clip0_125_538)">
<path d="M946.997 119.108C961.056 105.049 983.85 105.049 997.908 119.108L1318.23 439.427C1332.29 453.486 1332.29 476.28 1318.23 490.339L1213.58 594.991C1199.52 609.049 1176.72 609.049 1162.66 594.991L842.345 274.671C828.286 260.612 828.286 237.818 842.345 223.759L946.997 119.108Z" fill="white"/>
<path d="M1112.46 664.994C1119.1 671.633 1119.11 682.39 1112.47 689.029L1084.18 717.32C1072.86 728.634 1051.65 830.457 1033.97 901.875C1016.29 973.293 1002.5 1019.61 931.44 1090.67C872.575 1149.54 433.092 1233.87 283.938 1261.09C268.577 1263.9 259.22 1245.29 270.261 1234.25L660.846 843.665C686.132 848.282 713.192 840.816 732.743 821.265C764.376 789.632 764.376 738.346 732.743 706.713C701.111 675.081 649.825 675.081 618.192 706.713C598.641 726.265 591.174 753.324 595.792 778.611L205.207 1169.2C194.166 1180.24 175.559 1170.88 178.363 1155.52C205.583 1006.37 289.919 566.881 348.784 508.016C419.849 436.952 466.164 423.164 537.582 405.486C609 387.808 710.823 366.595 722.137 355.281L750.428 326.99C757.067 320.351 767.824 320.358 774.463 326.997L1112.46 664.994Z" fill="white"/>
</g>
<defs>
<clipPath id="clip0_125_538">
<rect width="1438" height="1438" fill="white"/>
</clipPath>
</defs>
</svg>
