<svg width="1438" height="1438" viewBox="0 0 1438 1438" fill="none" xmlns="http://www.w3.org/2000/svg">
<path d="M902 358C902 459.068 820.068 541 719 541C617.932 541 536 459.068 536 358C536 256.932 617.932 175 719 175C820.068 175 902 256.932 902 358Z" fill="white"/>
<path d="M1261 390C1261 473.395 1193.39 541 1110 541C1026.61 541 959 473.395 959 390C959 306.605 1026.61 239 1110 239C1193.39 239 1261 306.605 1261 390Z" fill="white"/>
<path d="M479 390C479 473.395 411.395 541 328 541C244.605 541 177 473.395 177 390C177 306.605 244.605 239 328 239C411.395 239 479 306.605 479 390Z" fill="white"/>
<path d="M449 697C449 642.876 492.876 599 547 599H889C943.124 599 987 642.876 987 697V996C987 1140.7 869.699 1258 725 1258H711C566.301 1258 449 1140.7 449 996V697Z" fill="white"/>
<path d="M1220 599C1274.12 599 1318 642.876 1318 697V902C1318 1032.89 1211.89 1139 1081 1139H1042C1034.65 1139 1027.36 1138.7 1020.17 1138.1C1038.54 1104.87 1049 1066.66 1049 1026V659C1049 625.863 1022.14 599 989 599H1220Z" fill="white"/>
<path d="M218 599C163.876 599 120 642.876 120 697V902C120 1032.89 226.109 1139 357 1139H396C403.353 1139 410.635 1138.7 417.835 1138.1C399.461 1104.87 389 1066.66 389 1026V659C389 625.863 415.863 599 449 599H218Z" fill="white"/>
</svg>
