<svg width="92" height="92" viewBox="0 0 92 92" fill="none" xmlns="http://www.w3.org/2000/svg">
<path d="M78.6491 41.8734C80.8612 41.8734 82.6544 43.6667 82.6544 45.8787C82.6544 48.0908 80.8612 49.884 78.6491 49.884L13.351 49.884C11.1389 49.884 9.3457 48.0908 9.3457 45.8787C9.3457 43.6667 11.1389 41.8734 13.351 41.8734L78.6491 41.8734Z" fill="white"/>
<path d="M41.9948 13.2296C41.9948 11.0176 43.788 9.22437 46.0001 9.22437C48.2121 9.22437 50.0053 11.0176 50.0053 13.2296V78.5278C50.0053 80.7399 48.2121 82.5331 46.0001 82.5331C43.788 82.5331 41.9948 80.7399 41.9948 78.5278V13.2296Z" fill="white"/>
</svg>
