<svg width="92" height="92" viewBox="0 0 92 92" fill="none" xmlns="http://www.w3.org/2000/svg">
<path d="M42.7367 10.739C44.0521 8.01019 47.9383 8.01018 49.2537 10.739L58.166 29.228C58.6933 30.3219 59.7343 31.0782 60.9376 31.2417L81.2758 34.0044C84.2775 34.4122 85.4784 38.1082 83.2896 40.2024L68.4596 54.392C67.5822 55.2315 67.1846 56.4553 67.401 57.6502L71.0583 77.8467C71.5981 80.8275 68.454 83.1117 65.7859 81.6772L47.7081 71.9579C46.6386 71.3828 45.3518 71.3828 44.2823 71.9579L26.2044 81.6772C23.5363 83.1117 20.3923 80.8275 20.9321 77.8467L24.5894 57.6502C24.8058 56.4553 24.4082 55.2315 23.5307 54.392L8.70073 40.2024C6.51197 38.1082 7.71287 34.4122 10.7146 34.0044L31.0527 31.2417C32.256 31.0782 33.297 30.3219 33.8243 29.228L42.7367 10.739Z" fill="white"/>
</svg>
