<svg width="92" height="92" viewBox="0 0 92 92" fill="none" xmlns="http://www.w3.org/2000/svg">
<path fill-rule="evenodd" clip-rule="evenodd" d="M70.92 11.4456C77.2813 11.4456 82.4381 16.6024 82.4381 22.9637V68.8912C82.4381 75.2525 77.2813 80.4093 70.92 80.4093H21.0806C14.7193 80.4093 9.5625 75.2525 9.5625 68.8912V22.9637C9.5625 16.6024 14.7193 11.4456 21.0806 11.4456H70.92ZM18.0381 32.381C17.558 32.381 17.1688 32.7702 17.1688 33.2503V68.9637C17.1688 71.2041 18.985 73.0204 21.2255 73.0204H70.5578C72.7982 73.0204 74.6145 71.2041 74.6145 68.9637V33.2503C74.6145 32.7702 74.2253 32.381 73.7452 32.381H18.0381ZM62.3719 19.0519C60.7716 19.0519 59.4743 20.3492 59.4743 21.9495C59.4743 23.5498 60.7716 24.8471 62.3719 24.8471C63.9723 24.8471 65.2696 23.5498 65.2696 21.9495C65.2696 20.3492 63.9723 19.0519 62.3719 19.0519ZM71.7168 19.0519C70.1165 19.0519 68.8192 20.3492 68.8192 21.9495C68.8192 23.5498 70.1165 24.8471 71.7168 24.8471C73.3172 24.8471 74.6145 23.5498 74.6145 21.9495C74.6145 20.3492 73.3172 19.0519 71.7168 19.0519Z" fill="white"/>
</svg>
