<svg width="1438" height="1438" viewBox="0 0 1438 1438" fill="none" xmlns="http://www.w3.org/2000/svg">
<path d="M1259 1080C1259 1177.75 1179.75 1257 1082 1257H358C260.246 1257 181 1177.75 181 1080V508H1259V1080ZM464 930C422.026 930 388 964.026 388 1006C388 1047.97 422.026 1082 464 1082C505.974 1082 540 1047.97 540 1006C540 964.026 505.974 930 464 930ZM720 930C678.026 930 644 964.026 644 1006C644 1047.97 678.026 1082 720 1082C761.974 1082 796 1047.97 796 1006C796 964.026 761.974 930 720 930ZM464 657C422.026 657 388 691.026 388 733C388 774.974 422.026 809 464 809C505.974 809 540 774.974 540 733C540 691.026 505.974 657 464 657ZM720 657C678.026 657 644 691.026 644 733C644 774.974 678.026 809 720 809C761.974 809 796 774.974 796 733C796 691.026 761.974 657 720 657ZM976 657C934.026 657 900 691.026 900 733C900 774.974 934.026 809 976 809C1017.97 809 1052 774.974 1052 733C1052 691.026 1017.97 657 976 657ZM1082 179C1179.75 179 1259 258.246 1259 356V420H181V356C181 258.246 260.246 179 358 179H1082Z" fill="white"/>
</svg>
