<svg width="1290" height="1290" viewBox="0 0 1290 1290" fill="none" xmlns="http://www.w3.org/2000/svg">
<path fill-rule="evenodd" clip-rule="evenodd" d="M645.5 112C939.592 112 1178 350.408 1178 644.5C1178 938.592 939.592 1177 645.5 1177C562.6 1177 484.124 1158.05 414.166 1124.26L185.056 1181.85C139.349 1193.34 97.6719 1152.41 108.329 1106.5L163.144 870.379C130.976 801.806 113 725.253 113 644.5C113 350.408 351.408 112 645.5 112ZM415.5 693C391.476 693 372 712.476 372 736.5C372 760.524 391.476 780 415.5 780H765.5C789.524 780 809 760.524 809 736.5C809 712.476 789.524 693 765.5 693H415.5ZM415.5 507C391.476 507 372 526.476 372 550.5C372 574.524 391.476 594 415.5 594H872.5C896.524 594 916 574.524 916 550.5C916 526.476 896.524 507 872.5 507H415.5Z" fill="white"/>
</svg>
