<svg width="92" height="92" viewBox="0 0 92 92" fill="none" xmlns="http://www.w3.org/2000/svg">
<path d="M74.7573 44.9748C74.7573 51.8705 69.1672 57.4605 62.2716 57.4605C55.3759 57.4605 49.7859 51.8705 49.7859 44.9748C49.7859 38.0791 55.3759 32.4891 62.2716 32.4891C69.1672 32.4891 74.7573 38.0791 74.7573 44.9748Z" fill="white"/>
<path d="M49.7333 8.71661C49.7333 6.02203 51.9177 3.83765 54.6123 3.83765H64.2167C71.0543 3.83765 76.5973 9.38062 76.5973 16.2182C76.5973 23.0558 71.0543 28.5988 64.2167 28.5988H54.6123C51.9177 28.5988 49.7333 26.4144 49.7333 23.7198V8.71661Z" fill="white"/>
<path d="M46.0007 8.71661C46.0007 6.02203 43.8163 3.83765 41.1218 3.83765H31.5173C24.6797 3.83765 19.1367 9.38062 19.1367 16.2182C19.1367 23.0558 24.6797 28.5988 31.5173 28.5988H41.1218C43.8163 28.5988 46.0007 26.4144 46.0007 23.7198V8.71661Z" fill="white"/>
<path d="M46.0007 37.5783C46.0007 34.8837 43.8163 32.6994 41.1218 32.6994H31.5173C24.6797 32.6994 19.1367 38.2423 19.1367 45.0799C19.1367 51.9175 24.6797 57.4605 31.5173 57.4605H41.1218C43.8163 57.4605 46.0007 55.2761 46.0007 52.5815V37.5783Z" fill="white"/>
<path d="M46.0007 66.1244C46.0007 63.6041 43.9577 61.5611 41.4374 61.5611H32.2796C25.021 61.5611 19.1367 67.4851 19.1367 74.7437C19.1367 81.9585 24.9855 87.8468 32.2003 87.8468C39.8221 87.8468 46.0007 81.6681 46.0007 74.0464V66.1244Z" fill="white"/>
</svg>
