<svg width="1438" height="1438" viewBox="0 0 1438 1438" fill="none" xmlns="http://www.w3.org/2000/svg">
<path d="M929 470C929 557.813 1000.19 629 1088 629H1346V1059C1346 1152.34 1270.34 1228 1177 1228H709C615.664 1228 540 1152.34 540 1059V350C540 256.664 615.664 181 709 181H929V470Z" fill="white"/>
<path d="M1342.69 538.999H1096C1051.82 538.999 1016 503.182 1016 458.999V206.346L1342.69 538.999Z" fill="white"/>
<path d="M512.24 240C494.062 264.286 483.223 294.381 483.006 327H468C422.713 327 386 363.713 386 409V999C386 1044.29 422.713 1081 468 1081H483C483 1113.56 493.586 1143.64 511.501 1168H468C374.664 1168 299 1092.34 299 999V409C299 315.664 374.664 240 468 240H512.24Z" fill="white"/>
<path d="M271.24 304C252.877 325.256 242 351.648 242 380.241V391H227C169.579 391 145 428.898 145 450.418V961.582C145 983.102 169.579 1021 227 1021H242V1032.62C242 1060.83 252.586 1086.9 270.501 1108H227L224.815 1107.99C133.213 1106.98 59.1741 1042.84 58.0137 963.475L58 961.582V450.418C58.0001 369.554 133.664 304 227 304H271.24Z" fill="white"/>
</svg>
