<svg width="925" height="925" viewBox="0 0 925 925" fill="none" xmlns="http://www.w3.org/2000/svg">
<path d="M391.019 670L355.638 562.727L280.274 328.337H278.26L202.896 562.727L167.515 670L278.26 328.337H280.274L391.019 670Z" fill="white"/>
<path d="M564.78 369.751C564.344 369.751 563.958 370.033 563.826 370.449L469.481 669.301C469.35 669.717 468.964 670 468.527 670H391.019L280.274 328.337H278.26L167.515 670H92.416C91.7253 670 91.2426 669.316 91.4736 668.666L238.041 255.666C238.182 255.267 238.56 255 238.983 255H321.273C321.698 255 322.077 255.269 322.217 255.67L431.485 568.671C431.625 569.073 432.004 569.342 432.429 569.342H432.805C433.242 569.342 433.628 569.059 433.759 568.642L532.472 255.699C532.604 255.283 532.99 255 533.426 255H597.508C597.962 255 598.358 255.305 598.475 255.744L681.499 568.598C681.615 569.036 682.012 569.342 682.465 569.342H683.2C683.666 569.342 684.071 569.019 684.175 568.565L755.732 255.777C755.836 255.322 756.24 255 756.707 255H831.696C832.354 255 832.833 255.624 832.662 256.259L721.878 669.259C721.761 669.696 721.365 670 720.912 670H652.537C652.089 670 651.696 669.703 651.575 669.272L567.129 370.479C567.007 370.048 566.614 369.751 566.167 369.751H564.78Z" fill="white"/>
</svg>
